<?xml version="1.0" encoding="UTF-8" standalone="no"?>
<!DOCTYPE svg PUBLIC "-//W3C//DTD SVG 1.1//EN"
 "http://www.w3.org/Graphics/SVG/1.1/DTD/svg11.dtd">
<!-- Generated by graphviz version 2.43.0 (0)
 -->
<!-- Title: inc/isf15acp4_canvas.hpp Pages: 1 -->
<svg width="286pt" height="192pt"
 viewBox="0.00 0.00 286.25 192.00" xmlns="http://www.w3.org/2000/svg" xmlns:xlink="http://www.w3.org/1999/xlink">
<g id="graph0" class="graph" transform="scale(1 1) rotate(0) translate(4 188)">
<title>inc/isf15acp4_canvas.hpp</title>
<!-- Node1 -->
<g id="Node000001" class="node">
<title>Node1</title>
<g id="a_Node000001"><a xlink:title="Software framebuffer and 2D drawing primitives for SmartDisplay OLEDs.">
<polygon fill="#999999" stroke="#666666" points="201.06,-184 59.06,-184 59.06,-165 201.06,-165 201.06,-184"/>
<text text-anchor="middle" x="130.06" y="-172" font-family="Helvetica,sans-Serif" font-size="10.00">inc/isf15acp4_canvas.hpp</text>
</a>
</g>
</g>
<!-- Node2 -->
<g id="Node000002" class="node">
<title>Node2</title>
<g id="a_Node000002"><a xlink:title=" ">
<polygon fill="#e0e0e0" stroke="#999999" points="97.56,-19 44.56,-19 44.56,0 97.56,0 97.56,-19"/>
<text text-anchor="middle" x="71.06" y="-7" font-family="Helvetica,sans-Serif" font-size="10.00">cstddef</text>
</a>
</g>
</g>
<!-- Node1&#45;&gt;Node2 -->
<g id="edge1_Node000001_Node000002" class="edge">
<title>Node1&#45;&gt;Node2</title>
<g id="a_edge1_Node000001_Node000002"><a xlink:title=" ">
<path fill="none" stroke="#63b8ff" d="M109.95,-164.85C80.15,-150.79 25.38,-119.83 3.06,-74 -7.44,-52.43 17.13,-34.51 39.62,-23.27"/>
<polygon fill="#63b8ff" stroke="#63b8ff" points="41.13,-26.43 48.7,-19.01 38.16,-20.09 41.13,-26.43"/>
</a>
</g>
</g>
<!-- Node3 -->
<g id="Node000003" class="node">
<title>Node3</title>
<g id="a_Node000003"><a xlink:title=" ">
<polygon fill="#e0e0e0" stroke="#999999" points="228.06,-19 178.06,-19 178.06,0 228.06,0 228.06,-19"/>
<text text-anchor="middle" x="203.06" y="-7" font-family="Helvetica,sans-Serif" font-size="10.00">cstdint</text>
</a>
</g>
</g>
<!-- Node1&#45;&gt;Node3 -->
<g id="edge2_Node000001_Node000003" class="edge">
<title>Node1&#45;&gt;Node3</title>
<g id="a_edge2_Node000001_Node000003"><a xlink:title=" ">
<path fill="none" stroke="#63b8ff" d="M201.37,-165.02C224.12,-158.71 247.23,-147.79 262.06,-129 282.48,-103.12 282.33,-84.21 267.06,-55 259.95,-41.39 246.57,-31.1 233.87,-23.87"/>
<polygon fill="#63b8ff" stroke="#63b8ff" points="235.33,-20.68 224.85,-19.13 232.08,-26.88 235.33,-20.68"/>
</a>
</g>
</g>
<!-- Node4 -->
<g id="Node000004" class="node">
<title>Node4</title>
<g id="a_Node000004"><a xlink:href="isf15acp4__types_8hpp.html" target="_top" xlink:title="Shared types, constants, and color utilities for NKK SmartDisplay OLED drivers.">
<polygon fill="white" stroke="#666666" points="129.56,-74 12.56,-74 12.56,-55 129.56,-55 129.56,-74"/>
<text text-anchor="middle" x="71.06" y="-62" font-family="Helvetica,sans-Serif" font-size="10.00">isf15acp4_types.hpp</text>
</a>
</g>
</g>
<!-- Node1&#45;&gt;Node4 -->
<g id="edge3_Node000001_Node000004" class="edge">
<title>Node1&#45;&gt;Node4</title>
<g id="a_edge3_Node000001_Node000004"><a xlink:title=" ">
<path fill="none" stroke="#63b8ff" d="M122.25,-164.81C114.79,-156.19 103.61,-142.38 96.06,-129 87.87,-114.49 81.13,-96.76 76.73,-83.73"/>
<polygon fill="#63b8ff" stroke="#63b8ff" points="80,-82.49 73.59,-74.06 73.35,-84.65 80,-82.49"/>
</a>
</g>
</g>
<!-- Node5 -->
<g id="Node000005" class="node">
<title>Node5</title>
<g id="a_Node000005"><a xlink:href="isf15acp4__canvas_8ipp.html" target="_top" xlink:title=" ">
<polygon fill="white" stroke="#666666" points="253.06,-129 105.06,-129 105.06,-110 253.06,-110 253.06,-129"/>
<text text-anchor="middle" x="179.06" y="-117" font-family="Helvetica,sans-Serif" font-size="10.00">../src/isf15acp4_canvas.ipp</text>
</a>
</g>
</g>
<!-- Node1&#45;&gt;Node5 -->
<g id="edge6_Node000001_Node000005" class="edge">
<title>Node1&#45;&gt;Node5</title>
<g id="a_edge6_Node000001_Node000005"><a xlink:title=" ">
<path fill="none" stroke="#63b8ff" d="M138.15,-164.75C145.21,-157.11 155.65,-145.82 164.21,-136.56"/>
<polygon fill="#63b8ff" stroke="#63b8ff" points="166.9,-138.81 171.12,-129.09 161.76,-134.06 166.9,-138.81"/>
</a>
</g>
</g>
<!-- Node4&#45;&gt;Node2 -->
<g id="edge4_Node000004_Node000002" class="edge">
<title>Node4&#45;&gt;Node2</title>
<g id="a_edge4_Node000004_Node000002"><a xlink:title=" ">
<path fill="none" stroke="#63b8ff" d="M71.06,-54.75C71.06,-47.8 71.06,-37.85 71.06,-29.13"/>
<polygon fill="#63b8ff" stroke="#63b8ff" points="74.56,-29.09 71.06,-19.09 67.56,-29.09 74.56,-29.09"/>
</a>
</g>
</g>
<!-- Node4&#45;&gt;Node3 -->
<g id="edge5_Node000004_Node000003" class="edge">
<title>Node4&#45;&gt;Node3</title>
<g id="a_edge5_Node000004_Node000003"><a xlink:title=" ">
<path fill="none" stroke="#63b8ff" d="M92.27,-54.98C113.79,-46.34 147.34,-32.87 171.89,-23.02"/>
<polygon fill="#63b8ff" stroke="#63b8ff" points="173.49,-26.14 181.46,-19.17 170.88,-19.65 173.49,-26.14"/>
</a>
</g>
</g>
<!-- Node6 -->
<g id="Node000006" class="node">
<title>Node6</title>
<g id="a_Node000006"><a xlink:href="isf15acp4__font_8hpp.html" target="_top" xlink:title="Compact 5x7 bitmap font for SmartDisplay text rendering.">
<polygon fill="white" stroke="#666666" points="258.06,-74 148.06,-74 148.06,-55 258.06,-55 258.06,-74"/>
<text text-anchor="middle" x="203.06" y="-62" font-family="Helvetica,sans-Serif" font-size="10.00">isf15acp4_font.hpp</text>
</a>
</g>
</g>
<!-- Node5&#45;&gt;Node6 -->
<g id="edge7_Node000005_Node000006" class="edge">
<title>Node5&#45;&gt;Node6</title>
<g id="a_edge7_Node000005_Node000006"><a xlink:title=" ">
<path fill="none" stroke="#63b8ff" d="M183.02,-109.75C186.27,-102.57 190.98,-92.18 195.01,-83.27"/>
<polygon fill="#63b8ff" stroke="#63b8ff" points="198.23,-84.64 199.17,-74.09 191.86,-81.75 198.23,-84.64"/>
</a>
</g>
</g>
<!-- Node6&#45;&gt;Node2 -->
<g id="edge8_Node000006_Node000002" class="edge">
<title>Node6&#45;&gt;Node2</title>
<g id="a_edge8_Node000006_Node000002"><a xlink:title=" ">
<path fill="none" stroke="#63b8ff" d="M181.85,-54.98C160.33,-46.34 126.78,-32.87 102.23,-23.02"/>
<polygon fill="#63b8ff" stroke="#63b8ff" points="103.24,-19.65 92.65,-19.17 100.63,-26.14 103.24,-19.65"/>
</a>
</g>
</g>
<!-- Node6&#45;&gt;Node3 -->
<g id="edge9_Node000006_Node000003" class="edge">
<title>Node6&#45;&gt;Node3</title>
<g id="a_edge9_Node000006_Node000003"><a xlink:title=" ">
<path fill="none" stroke="#63b8ff" d="M203.06,-54.75C203.06,-47.8 203.06,-37.85 203.06,-29.13"/>
<polygon fill="#63b8ff" stroke="#63b8ff" points="206.56,-29.09 203.06,-19.09 199.56,-29.09 206.56,-29.09"/>
</a>
</g>
</g>
</g>
</svg>
