<?xml version="1.0" encoding="UTF-8" standalone="no"?>
<!DOCTYPE svg PUBLIC "-//W3C//DTD SVG 1.1//EN"
 "http://www.w3.org/Graphics/SVG/1.1/DTD/svg11.dtd">
<!-- Generated by graphviz version 2.43.0 (0)
 -->
<!-- Title: inc/isf15acp4_animator.hpp Pages: 1 -->
<svg width="724pt" height="335pt"
 viewBox="0.00 0.00 723.50 335.00" xmlns="http://www.w3.org/2000/svg" xmlns:xlink="http://www.w3.org/1999/xlink">
<g id="graph0" class="graph" transform="scale(1 1) rotate(0) translate(4 331)">
<title>inc/isf15acp4_animator.hpp</title>
<!-- Node1 -->
<g id="Node000001" class="node">
<title>Node1</title>
<g id="a_Node000001"><a xlink:title="Frame sequencer and procedural animation helpers for SmartDisplay.">
<polygon fill="#999999" stroke="#666666" points="563.5,-327 412.5,-327 412.5,-308 563.5,-308 563.5,-327"/>
<text text-anchor="middle" x="488" y="-315" font-family="Helvetica,sans-Serif" font-size="10.00">inc/isf15acp4_animator.hpp</text>
</a>
</g>
</g>
<!-- Node2 -->
<g id="Node000002" class="node">
<title>Node2</title>
<g id="a_Node000002"><a xlink:title=" ">
<polygon fill="#e0e0e0" stroke="#999999" points="144.5,-19 91.5,-19 91.5,0 144.5,0 144.5,-19"/>
<text text-anchor="middle" x="118" y="-7" font-family="Helvetica,sans-Serif" font-size="10.00">cstddef</text>
</a>
</g>
</g>
<!-- Node1&#45;&gt;Node2 -->
<g id="edge1_Node000001_Node000002" class="edge">
<title>Node1&#45;&gt;Node2</title>
<g id="a_edge1_Node000001_Node000002"><a xlink:title=" ">
<path fill="none" stroke="#63b8ff" d="M412.29,-312.82C275.22,-304.07 0,-276.05 0,-192 0,-192 0,-192 0,-124 0,-75.28 52.89,-40.93 87.85,-23.54"/>
<polygon fill="#63b8ff" stroke="#63b8ff" points="89.66,-26.55 97.18,-19.08 86.64,-20.23 89.66,-26.55"/>
</a>
</g>
</g>
<!-- Node3 -->
<g id="Node000003" class="node">
<title>Node3</title>
<g id="a_Node000003"><a xlink:title=" ">
<polygon fill="#e0e0e0" stroke="#999999" points="460,-19 410,-19 410,0 460,0 460,-19"/>
<text text-anchor="middle" x="435" y="-7" font-family="Helvetica,sans-Serif" font-size="10.00">cstdint</text>
</a>
</g>
</g>
<!-- Node1&#45;&gt;Node3 -->
<g id="edge2_Node000001_Node000003" class="edge">
<title>Node1&#45;&gt;Node3</title>
<g id="a_edge2_Node000001_Node000003"><a xlink:title=" ">
<path fill="none" stroke="#63b8ff" d="M493.15,-307.78C504.37,-287.95 530,-237.62 530,-192 530,-192 530,-192 530,-124 530,-79.71 486.94,-43.61 458.8,-24.75"/>
<polygon fill="#63b8ff" stroke="#63b8ff" points="460.56,-21.72 450.26,-19.24 456.77,-27.6 460.56,-21.72"/>
</a>
</g>
</g>
<!-- Node4 -->
<g id="Node000004" class="node">
<title>Node4</title>
<g id="a_Node000004"><a xlink:href="isf15acp4__graphics__context_8hpp.html" target="_top" xlink:title="Runtime&#45;selectable graphics backend for SmartDisplay applications.">
<polygon fill="white" stroke="#666666" points="446,-272 336,-272 336,-242 446,-242 446,-272"/>
<text text-anchor="start" x="344" y="-260" font-family="Helvetica,sans-Serif" font-size="10.00">isf15acp4_graphics</text>
<text text-anchor="middle" x="391" y="-249" font-family="Helvetica,sans-Serif" font-size="10.00">_context.hpp</text>
</a>
</g>
</g>
<!-- Node1&#45;&gt;Node4 -->
<g id="edge3_Node000001_Node000004" class="edge">
<title>Node1&#45;&gt;Node4</title>
<g id="a_edge3_Node000001_Node000004"><a xlink:title=" ">
<path fill="none" stroke="#63b8ff" d="M473.69,-307.87C460.4,-299.86 440.16,-287.65 423.03,-277.31"/>
<polygon fill="#63b8ff" stroke="#63b8ff" points="424.77,-274.28 414.4,-272.11 421.16,-280.28 424.77,-274.28"/>
</a>
</g>
</g>
<!-- Node11 -->
<g id="Node000011" class="node">
<title>Node11</title>
<g id="a_Node000011"><a xlink:href="isf15acp4__animator_8ipp.html" target="_top" xlink:title=" ">
<polygon fill="white" stroke="#666666" points="715.5,-266.5 558.5,-266.5 558.5,-247.5 715.5,-247.5 715.5,-266.5"/>
<text text-anchor="middle" x="637" y="-254.5" font-family="Helvetica,sans-Serif" font-size="10.00">../src/isf15acp4_animator.ipp</text>
</a>
</g>
</g>
<!-- Node1&#45;&gt;Node11 -->
<g id="edge21_Node000001_Node000011" class="edge">
<title>Node1&#45;&gt;Node11</title>
<g id="a_edge21_Node000001_Node000011"><a xlink:title=" ">
<path fill="none" stroke="#63b8ff" d="M509.67,-307.99C534.94,-298.07 576.91,-281.59 605.72,-270.28"/>
<polygon fill="#63b8ff" stroke="#63b8ff" points="607.28,-273.43 615.31,-266.52 604.72,-266.91 607.28,-273.43"/>
</a>
</g>
</g>
<!-- Node4&#45;&gt;Node2 -->
<g id="edge4_Node000004_Node000002" class="edge">
<title>Node4&#45;&gt;Node2</title>
<g id="a_edge4_Node000004_Node000002"><a xlink:title=" ">
<path fill="none" stroke="#63b8ff" d="M335.76,-251.07C267.41,-244.07 155.9,-229.43 122,-206 65.33,-166.83 63.41,-119.72 87,-55 90.65,-44.97 97.15,-35.1 103.25,-27.21"/>
<polygon fill="#63b8ff" stroke="#63b8ff" points="106.16,-29.19 109.81,-19.25 100.75,-24.75 106.16,-29.19"/>
</a>
</g>
</g>
<!-- Node4&#45;&gt;Node3 -->
<g id="edge5_Node000004_Node000003" class="edge">
<title>Node4&#45;&gt;Node3</title>
<g id="a_edge5_Node000004_Node000003"><a xlink:title=" ">
<path fill="none" stroke="#63b8ff" d="M407.18,-241.66C416.79,-232.35 428.52,-219.48 436,-206 450.81,-179.31 448.92,-169.91 455,-140 462.56,-102.82 473.52,-91.46 463,-55 460.13,-45.06 454.32,-35.2 448.72,-27.29"/>
<polygon fill="#63b8ff" stroke="#63b8ff" points="451.5,-25.16 442.67,-19.3 445.92,-29.39 451.5,-25.16"/>
</a>
</g>
</g>
<!-- Node5 -->
<g id="Node000005" class="node">
<title>Node5</title>
<g id="a_Node000005"><a xlink:href="isf15acp4__canvas_8hpp.html" target="_top" xlink:title="Software framebuffer and 2D drawing primitives for SmartDisplay OLEDs.">
<polygon fill="white" stroke="#666666" points="256.5,-200.5 131.5,-200.5 131.5,-181.5 256.5,-181.5 256.5,-200.5"/>
<text text-anchor="middle" x="194" y="-188.5" font-family="Helvetica,sans-Serif" font-size="10.00">isf15acp4_canvas.hpp</text>
</a>
</g>
</g>
<!-- Node4&#45;&gt;Node5 -->
<g id="edge6_Node000004_Node000005" class="edge">
<title>Node4&#45;&gt;Node5</title>
<g id="a_edge6_Node000004_Node000005"><a xlink:title=" ">
<path fill="none" stroke="#63b8ff" d="M347.77,-241.95C312.46,-230.48 263.14,-214.46 229.96,-203.68"/>
<polygon fill="#63b8ff" stroke="#63b8ff" points="230.81,-200.28 220.22,-200.52 228.65,-206.94 230.81,-200.28"/>
</a>
</g>
</g>
<!-- Node9 -->
<g id="Node000009" class="node">
<title>Node9</title>
<g id="a_Node000009"><a xlink:href="isf15acp4__graphics__surface_8hpp.html" target="_top" xlink:title="Pluggable graphics surface interface for interchangeable render backends.">
<polygon fill="white" stroke="#666666" points="426,-140 316,-140 316,-110 426,-110 426,-140"/>
<text text-anchor="start" x="324" y="-128" font-family="Helvetica,sans-Serif" font-size="10.00">isf15acp4_graphics</text>
<text text-anchor="middle" x="371" y="-117" font-family="Helvetica,sans-Serif" font-size="10.00">_surface.hpp</text>
</a>
</g>
</g>
<!-- Node4&#45;&gt;Node9 -->
<g id="edge16_Node000004_Node000009" class="edge">
<title>Node4&#45;&gt;Node9</title>
<g id="a_edge16_Node000004_Node000009"><a xlink:title=" ">
<path fill="none" stroke="#63b8ff" d="M402.46,-242C414.14,-225.93 429.33,-198.84 420,-176 415.5,-164.97 407.26,-155.06 398.81,-147.03"/>
<polygon fill="#63b8ff" stroke="#63b8ff" points="400.9,-144.2 391.09,-140.2 396.26,-149.44 400.9,-144.2"/>
</a>
</g>
</g>
<!-- Node10 -->
<g id="Node000010" class="node">
<title>Node10</title>
<g id="a_Node000010"><a xlink:href="isf15acp4__graphics__context_8ipp.html" target="_top" xlink:title=" ">
<polygon fill="white" stroke="#666666" points="411.5,-206 274.5,-206 274.5,-176 411.5,-176 411.5,-206"/>
<text text-anchor="start" x="282.5" y="-194" font-family="Helvetica,sans-Serif" font-size="10.00">../src/isf15acp4_graphics</text>
<text text-anchor="middle" x="343" y="-183" font-family="Helvetica,sans-Serif" font-size="10.00">_context.ipp</text>
</a>
</g>
</g>
<!-- Node4&#45;&gt;Node10 -->
<g id="edge20_Node000004_Node000010" class="edge">
<title>Node4&#45;&gt;Node10</title>
<g id="a_edge20_Node000004_Node000010"><a xlink:title=" ">
<path fill="none" stroke="#63b8ff" d="M380.35,-241.8C374.32,-233.76 366.64,-223.53 359.82,-214.43"/>
<polygon fill="#63b8ff" stroke="#63b8ff" points="362.42,-212.06 353.62,-206.16 356.82,-216.26 362.42,-212.06"/>
</a>
</g>
</g>
<!-- Node5&#45;&gt;Node2 -->
<g id="edge7_Node000005_Node000002" class="edge">
<title>Node5&#45;&gt;Node2</title>
<g id="a_edge7_Node000005_Node000002"><a xlink:title=" ">
<path fill="none" stroke="#63b8ff" d="M158.13,-181.39C136.48,-174.17 110.54,-161.47 97,-140 76.85,-108.04 86.07,-91.72 95,-55 97.31,-45.51 102.02,-35.78 106.58,-27.85"/>
<polygon fill="#63b8ff" stroke="#63b8ff" points="109.64,-29.55 111.9,-19.2 103.68,-25.89 109.64,-29.55"/>
</a>
</g>
</g>
<!-- Node5&#45;&gt;Node3 -->
<g id="edge8_Node000005_Node000003" class="edge">
<title>Node5&#45;&gt;Node3</title>
<g id="a_edge8_Node000005_Node000003"><a xlink:title=" ">
<path fill="none" stroke="#63b8ff" d="M236.74,-181.48C305.56,-167.72 433.42,-141.94 435,-140 460.81,-108.29 449.95,-56.28 441.49,-28.81"/>
<polygon fill="#63b8ff" stroke="#63b8ff" points="444.8,-27.68 438.35,-19.28 438.16,-29.87 444.8,-27.68"/>
</a>
</g>
</g>
<!-- Node6 -->
<g id="Node000006" class="node">
<title>Node6</title>
<g id="a_Node000006"><a xlink:href="isf15acp4__types_8hpp.html" target="_top" xlink:title="Shared types, constants, and color utilities for NKK SmartDisplay OLED drivers.">
<polygon fill="white" stroke="#666666" points="349.5,-74 232.5,-74 232.5,-55 349.5,-55 349.5,-74"/>
<text text-anchor="middle" x="291" y="-62" font-family="Helvetica,sans-Serif" font-size="10.00">isf15acp4_types.hpp</text>
</a>
</g>
</g>
<!-- Node5&#45;&gt;Node6 -->
<g id="edge9_Node000005_Node000006" class="edge">
<title>Node5&#45;&gt;Node6</title>
<g id="a_edge9_Node000005_Node000006"><a xlink:title=" ">
<path fill="none" stroke="#63b8ff" d="M210.95,-181.47C226.44,-172.9 249,-158.35 263,-140 275.8,-123.22 283.29,-99.94 287.26,-83.89"/>
<polygon fill="#63b8ff" stroke="#63b8ff" points="290.68,-84.63 289.46,-74.11 283.85,-83.09 290.68,-84.63"/>
</a>
</g>
</g>
<!-- Node7 -->
<g id="Node000007" class="node">
<title>Node7</title>
<g id="a_Node000007"><a xlink:href="isf15acp4__canvas_8ipp.html" target="_top" xlink:title=" ">
<polygon fill="white" stroke="#666666" points="254,-134.5 106,-134.5 106,-115.5 254,-115.5 254,-134.5"/>
<text text-anchor="middle" x="180" y="-122.5" font-family="Helvetica,sans-Serif" font-size="10.00">../src/isf15acp4_canvas.ipp</text>
</a>
</g>
</g>
<!-- Node5&#45;&gt;Node7 -->
<g id="edge12_Node000005_Node000007" class="edge">
<title>Node5&#45;&gt;Node7</title>
<g id="a_edge12_Node000005_Node000007"><a xlink:title=" ">
<path fill="none" stroke="#63b8ff" d="M192.11,-181.37C190.08,-172.07 186.78,-156.98 184.13,-144.9"/>
<polygon fill="#63b8ff" stroke="#63b8ff" points="187.5,-143.93 181.95,-134.91 180.67,-145.42 187.5,-143.93"/>
</a>
</g>
</g>
<!-- Node6&#45;&gt;Node2 -->
<g id="edge10_Node000006_Node000002" class="edge">
<title>Node6&#45;&gt;Node2</title>
<g id="a_edge10_Node000006_Node000002"><a xlink:title=" ">
<path fill="none" stroke="#63b8ff" d="M263.2,-54.98C233.6,-45.92 186.63,-31.53 154.16,-21.58"/>
<polygon fill="#63b8ff" stroke="#63b8ff" points="155.18,-18.23 144.59,-18.65 153.13,-24.92 155.18,-18.23"/>
</a>
</g>
</g>
<!-- Node6&#45;&gt;Node3 -->
<g id="edge11_Node000006_Node000003" class="edge">
<title>Node6&#45;&gt;Node3</title>
<g id="a_edge11_Node000006_Node000003"><a xlink:title=" ">
<path fill="none" stroke="#63b8ff" d="M314.14,-54.98C337.82,-46.27 374.87,-32.63 401.71,-22.75"/>
<polygon fill="#63b8ff" stroke="#63b8ff" points="403.27,-25.91 411.44,-19.17 400.85,-19.34 403.27,-25.91"/>
</a>
</g>
</g>
<!-- Node8 -->
<g id="Node000008" class="node">
<title>Node8</title>
<g id="a_Node000008"><a xlink:href="isf15acp4__font_8hpp.html" target="_top" xlink:title="Compact 5x7 bitmap font for SmartDisplay text rendering.">
<polygon fill="white" stroke="#666666" points="214,-74 104,-74 104,-55 214,-55 214,-74"/>
<text text-anchor="middle" x="159" y="-62" font-family="Helvetica,sans-Serif" font-size="10.00">isf15acp4_font.hpp</text>
</a>
</g>
</g>
<!-- Node7&#45;&gt;Node8 -->
<g id="edge13_Node000007_Node000008" class="edge">
<title>Node7&#45;&gt;Node8</title>
<g id="a_edge13_Node000007_Node000008"><a xlink:title=" ">
<path fill="none" stroke="#63b8ff" d="M176.9,-115.37C173.92,-107.07 169.33,-94.28 165.54,-83.72"/>
<polygon fill="#63b8ff" stroke="#63b8ff" points="168.78,-82.4 162.11,-74.17 162.2,-84.76 168.78,-82.4"/>
</a>
</g>
</g>
<!-- Node8&#45;&gt;Node2 -->
<g id="edge14_Node000008_Node000002" class="edge">
<title>Node8&#45;&gt;Node2</title>
<g id="a_edge14_Node000008_Node000002"><a xlink:title=" ">
<path fill="none" stroke="#63b8ff" d="M152.23,-54.75C146.44,-47.26 137.94,-36.28 130.86,-27.13"/>
<polygon fill="#63b8ff" stroke="#63b8ff" points="133.53,-24.86 124.64,-19.09 127.99,-29.14 133.53,-24.86"/>
</a>
</g>
</g>
<!-- Node8&#45;&gt;Node3 -->
<g id="edge15_Node000008_Node000003" class="edge">
<title>Node8&#45;&gt;Node3</title>
<g id="a_edge15_Node000008_Node000003"><a xlink:title=" ">
<path fill="none" stroke="#63b8ff" d="M203.34,-54.98C257.97,-44.49 349.67,-26.88 399.75,-17.27"/>
<polygon fill="#63b8ff" stroke="#63b8ff" points="400.61,-20.67 409.78,-15.34 399.29,-13.79 400.61,-20.67"/>
</a>
</g>
</g>
<!-- Node9&#45;&gt;Node2 -->
<g id="edge17_Node000009_Node000002" class="edge">
<title>Node9&#45;&gt;Node2</title>
<g id="a_edge17_Node000009_Node000002"><a xlink:title=" ">
<path fill="none" stroke="#63b8ff" d="M372.61,-109.99C373.56,-94.36 372.42,-69.37 358,-55 329.97,-27.06 215.08,-16.2 155,-12.37"/>
<polygon fill="#63b8ff" stroke="#63b8ff" points="154.99,-8.86 144.8,-11.76 154.57,-15.85 154.99,-8.86"/>
</a>
</g>
</g>
<!-- Node9&#45;&gt;Node3 -->
<g id="edge18_Node000009_Node000003" class="edge">
<title>Node9&#45;&gt;Node3</title>
<g id="a_edge18_Node000009_Node000003"><a xlink:title=" ">
<path fill="none" stroke="#63b8ff" d="M379.11,-109.63C390.83,-88.84 412.48,-50.44 425.12,-28.02"/>
<polygon fill="#63b8ff" stroke="#63b8ff" points="428.21,-29.66 430.08,-19.23 422.12,-26.22 428.21,-29.66"/>
</a>
</g>
</g>
<!-- Node9&#45;&gt;Node6 -->
<g id="edge19_Node000009_Node000006" class="edge">
<title>Node9&#45;&gt;Node6</title>
<g id="a_edge19_Node000009_Node000006"><a xlink:title=" ">
<path fill="none" stroke="#63b8ff" d="M351.63,-109.84C339.43,-100.91 323.69,-89.41 311.31,-80.35"/>
<polygon fill="#63b8ff" stroke="#63b8ff" points="313.13,-77.34 302.99,-74.27 308.99,-82.99 313.13,-77.34"/>
</a>
</g>
</g>
<!-- Node12 -->
<g id="Node000012" class="node">
<title>Node12</title>
<g id="a_Node000012"><a xlink:title=" ">
<polygon fill="#e0e0e0" stroke="#999999" points="660.5,-200.5 613.5,-200.5 613.5,-181.5 660.5,-181.5 660.5,-200.5"/>
<text text-anchor="middle" x="637" y="-188.5" font-family="Helvetica,sans-Serif" font-size="10.00">cmath</text>
</a>
</g>
</g>
<!-- Node11&#45;&gt;Node12 -->
<g id="edge22_Node000011_Node000012" class="edge">
<title>Node11&#45;&gt;Node12</title>
<g id="a_edge22_Node000011_Node000012"><a xlink:title=" ">
<path fill="none" stroke="#63b8ff" d="M637,-247.37C637,-238.16 637,-223.29 637,-211.27"/>
<polygon fill="#63b8ff" stroke="#63b8ff" points="640.5,-210.91 637,-200.91 633.5,-210.91 640.5,-210.91"/>
</a>
</g>
</g>
</g>
</svg>
