<?xml version="1.0" encoding="UTF-8" standalone="no"?>
<!DOCTYPE svg PUBLIC "-//W3C//DTD SVG 1.1//EN"
 "http://www.w3.org/Graphics/SVG/1.1/DTD/svg11.dtd">
<!-- Generated by graphviz version 2.43.0 (0)
 -->
<!-- Title: examples/esp32/main/esp32_isf15acp4_setup.hpp Pages: 1 -->
<svg width="1693pt" height="467pt"
 viewBox="0.00 0.00 1693.05 467.00" xmlns="http://www.w3.org/2000/svg" xmlns:xlink="http://www.w3.org/1999/xlink">
<g id="graph0" class="graph" transform="scale(1 1) rotate(0) translate(4 463)">
<title>examples/esp32/main/esp32_isf15acp4_setup.hpp</title>
<!-- Node1 -->
<g id="Node000001" class="node">
<title>Node1</title>
<g id="a_Node000001"><a xlink:title="Factory helpers for ISF15ACP4 SPI adapter and SmartDisplay config.">
<polygon fill="#999999" stroke="#666666" points="917.5,-459 762.5,-459 762.5,-429 917.5,-429 917.5,-459"/>
<text text-anchor="start" x="770.5" y="-447" font-family="Helvetica,sans-Serif" font-size="10.00">examples/esp32/main</text>
<text text-anchor="middle" x="840" y="-436" font-family="Helvetica,sans-Serif" font-size="10.00">/esp32_isf15acp4_setup.hpp</text>
</a>
</g>
</g>
<!-- Node2 -->
<g id="Node000002" class="node">
<title>Node2</title>
<g id="a_Node000002"><a xlink:title=" ">
<polygon fill="#e0e0e0" stroke="#999999" points="110,-74 0,-74 0,-55 110,-55 110,-74"/>
<text text-anchor="middle" x="55" y="-62" font-family="Helvetica,sans-Serif" font-size="10.00">driver/spi_master.h</text>
</a>
</g>
</g>
<!-- Node1&#45;&gt;Node2 -->
<g id="edge1_Node000001_Node000002" class="edge">
<title>Node1&#45;&gt;Node2</title>
<g id="a_edge1_Node000001_Node000002"><a xlink:title=" ">
<path fill="none" stroke="#63b8ff" d="M762.49,-443.66C594.73,-443.01 213,-429.34 213,-318.5 213,-318.5 213,-318.5 213,-190 213,-129.68 141.08,-94.08 94.29,-77.31"/>
<polygon fill="#63b8ff" stroke="#63b8ff" points="95.31,-73.96 84.72,-74.01 93.03,-80.58 95.31,-73.96"/>
</a>
</g>
</g>
<!-- Node3 -->
<g id="Node000003" class="node">
<title>Node3</title>
<g id="a_Node000003"><a xlink:href="esp32__isf15acp4__spi__adapter_8hpp.html" target="_top" xlink:title="ESP&#45;IDF SPI/GPIO adapter for the ISF15ACP4 SmartDisplay driver.">
<polygon fill="white" stroke="#666666" points="575,-140 457,-140 457,-110 575,-110 575,-140"/>
<text text-anchor="start" x="465" y="-128" font-family="Helvetica,sans-Serif" font-size="10.00">esp32_isf15acp4_spi</text>
<text text-anchor="middle" x="516" y="-117" font-family="Helvetica,sans-Serif" font-size="10.00">_adapter.hpp</text>
</a>
</g>
</g>
<!-- Node1&#45;&gt;Node3 -->
<g id="edge2_Node000001_Node000003" class="edge">
<title>Node1&#45;&gt;Node3</title>
<g id="a_edge2_Node000001_Node000003"><a xlink:title=" ">
<path fill="none" stroke="#63b8ff" d="M762.2,-440.79C678.73,-433.78 558,-408.14 558,-318.5 558,-318.5 558,-318.5 558,-256 558,-217.26 540.91,-175.04 528.53,-149.55"/>
<polygon fill="#63b8ff" stroke="#63b8ff" points="531.51,-147.69 523.9,-140.33 525.26,-150.83 531.51,-147.69"/>
</a>
</g>
</g>
<!-- Node12 -->
<g id="Node000012" class="node">
<title>Node12</title>
<g id="a_Node000012"><a xlink:href="esp32__isf15acp4__test__config_8hpp.html" target="_top" xlink:title="Shared pin and SPI constants for ISF15ACP4 ESP32 examples.">
<polygon fill="white" stroke="#666666" points="1544,-393 1422,-393 1422,-363 1544,-363 1544,-393"/>
<text text-anchor="start" x="1430" y="-381" font-family="Helvetica,sans-Serif" font-size="10.00">esp32_isf15acp4_test</text>
<text text-anchor="middle" x="1483" y="-370" font-family="Helvetica,sans-Serif" font-size="10.00">_config.hpp</text>
</a>
</g>
</g>
<!-- Node1&#45;&gt;Node12 -->
<g id="edge14_Node000001_Node000012" class="edge">
<title>Node1&#45;&gt;Node12</title>
<g id="a_edge14_Node000001_Node000012"><a xlink:title=" ">
<path fill="none" stroke="#63b8ff" d="M917.56,-435.28C1043.33,-422.76 1289.92,-398.22 1411.6,-386.11"/>
<polygon fill="#63b8ff" stroke="#63b8ff" points="1412.31,-389.55 1421.92,-385.08 1411.62,-382.59 1412.31,-389.55"/>
</a>
</g>
</g>
<!-- Node13 -->
<g id="Node000013" class="node">
<title>Node13</title>
<g id="a_Node000013"><a xlink:href="isf15acp4_8hpp.html" target="_top" xlink:title="Hardware&#45;agnostic driver for NKK SmartDisplay OLED pushbuttons and displays.">
<polygon fill="white" stroke="#666666" points="1201.5,-387.5 1116.5,-387.5 1116.5,-368.5 1201.5,-368.5 1201.5,-387.5"/>
<text text-anchor="middle" x="1159" y="-375.5" font-family="Helvetica,sans-Serif" font-size="10.00">isf15acp4.hpp</text>
</a>
</g>
</g>
<!-- Node1&#45;&gt;Node13 -->
<g id="edge16_Node000001_Node000013" class="edge">
<title>Node1&#45;&gt;Node13</title>
<g id="a_edge16_Node000001_Node000013"><a xlink:title=" ">
<path fill="none" stroke="#63b8ff" d="M910.01,-428.95C969.28,-417.06 1052.93,-400.28 1106.56,-389.52"/>
<polygon fill="#63b8ff" stroke="#63b8ff" points="1107.43,-392.92 1116.55,-387.52 1106.05,-386.05 1107.43,-392.92"/>
</a>
</g>
</g>
<!-- Node3&#45;&gt;Node2 -->
<g id="edge6_Node000003_Node000002" class="edge">
<title>Node3&#45;&gt;Node2</title>
<g id="a_edge6_Node000003_Node000002"><a xlink:title=" ">
<path fill="none" stroke="#63b8ff" d="M456.8,-116.67C381.25,-107.29 246.23,-90.43 120.36,-74.17"/>
<polygon fill="#63b8ff" stroke="#63b8ff" points="120.52,-70.66 110.15,-72.85 119.62,-77.6 120.52,-70.66"/>
</a>
</g>
</g>
<!-- Node4 -->
<g id="Node000004" class="node">
<title>Node4</title>
<g id="a_Node000004"><a xlink:title=" ">
<polygon fill="#e0e0e0" stroke="#999999" points="1010.5,-19 957.5,-19 957.5,0 1010.5,0 1010.5,-19"/>
<text text-anchor="middle" x="984" y="-7" font-family="Helvetica,sans-Serif" font-size="10.00">cstddef</text>
</a>
</g>
</g>
<!-- Node3&#45;&gt;Node4 -->
<g id="edge3_Node000003_Node000004" class="edge">
<title>Node3&#45;&gt;Node4</title>
<g id="a_edge3_Node000003_Node000004"><a xlink:title=" ">
<path fill="none" stroke="#63b8ff" d="M552.24,-109.9C577.27,-100.06 611.27,-86.51 641,-74 660.26,-65.9 663.93,-60.81 684,-55 776.61,-28.2 890.22,-16.97 947.41,-12.75"/>
<polygon fill="#63b8ff" stroke="#63b8ff" points="947.68,-16.24 957.41,-12.04 947.19,-9.26 947.68,-16.24"/>
</a>
</g>
</g>
<!-- Node5 -->
<g id="Node000005" class="node">
<title>Node5</title>
<g id="a_Node000005"><a xlink:title=" ">
<polygon fill="#e0e0e0" stroke="#999999" points="1425,-19 1375,-19 1375,0 1425,0 1425,-19"/>
<text text-anchor="middle" x="1400" y="-7" font-family="Helvetica,sans-Serif" font-size="10.00">cstdint</text>
</a>
</g>
</g>
<!-- Node3&#45;&gt;Node5 -->
<g id="edge4_Node000003_Node000005" class="edge">
<title>Node3&#45;&gt;Node5</title>
<g id="a_edge4_Node000003_Node000005"><a xlink:title=" ">
<path fill="none" stroke="#63b8ff" d="M575.19,-116.66C648.83,-107.39 778.35,-90.63 889,-74 939.79,-66.36 952.13,-62.09 1003,-55 1136.02,-36.47 1294.95,-20.51 1364.48,-13.84"/>
<polygon fill="#63b8ff" stroke="#63b8ff" points="1365.24,-17.28 1374.86,-12.85 1364.57,-10.31 1365.24,-17.28"/>
</a>
</g>
</g>
<!-- Node6 -->
<g id="Node000006" class="node">
<title>Node6</title>
<g id="a_Node000006"><a xlink:title=" ">
<polygon fill="#e0e0e0" stroke="#999999" points="312,-74 234,-74 234,-55 312,-55 312,-74"/>
<text text-anchor="middle" x="273" y="-62" font-family="Helvetica,sans-Serif" font-size="10.00">driver/gpio.h</text>
</a>
</g>
</g>
<!-- Node3&#45;&gt;Node6 -->
<g id="edge5_Node000003_Node000006" class="edge">
<title>Node3&#45;&gt;Node6</title>
<g id="a_edge5_Node000003_Node000006"><a xlink:title=" ">
<path fill="none" stroke="#63b8ff" d="M457.8,-109.99C415.04,-99.7 357.78,-85.91 318.39,-76.43"/>
<polygon fill="#63b8ff" stroke="#63b8ff" points="319.07,-72.99 308.53,-74.05 317.43,-79.8 319.07,-72.99"/>
</a>
</g>
</g>
<!-- Node7 -->
<g id="Node000007" class="node">
<title>Node7</title>
<g id="a_Node000007"><a xlink:title=" ">
<polygon fill="#e0e0e0" stroke="#999999" points="393.5,-74 330.5,-74 330.5,-55 393.5,-55 393.5,-74"/>
<text text-anchor="middle" x="362" y="-62" font-family="Helvetica,sans-Serif" font-size="10.00">esp_log.h</text>
</a>
</g>
</g>
<!-- Node3&#45;&gt;Node7 -->
<g id="edge7_Node000003_Node000007" class="edge">
<title>Node3&#45;&gt;Node7</title>
<g id="a_edge7_Node000003_Node000007"><a xlink:title=" ">
<path fill="none" stroke="#63b8ff" d="M479.11,-109.99C453.3,-100.18 419.15,-87.21 394.4,-77.81"/>
<polygon fill="#63b8ff" stroke="#63b8ff" points="395.33,-74.42 384.74,-74.14 392.85,-80.96 395.33,-74.42"/>
</a>
</g>
</g>
<!-- Node8 -->
<g id="Node000008" class="node">
<title>Node8</title>
<g id="a_Node000008"><a xlink:title=" ">
<polygon fill="#e0e0e0" stroke="#999999" points="500.5,-74 411.5,-74 411.5,-55 500.5,-55 500.5,-74"/>
<text text-anchor="middle" x="456" y="-62" font-family="Helvetica,sans-Serif" font-size="10.00">esp_rom_sys.h</text>
</a>
</g>
</g>
<!-- Node3&#45;&gt;Node8 -->
<g id="edge8_Node000003_Node000008" class="edge">
<title>Node3&#45;&gt;Node8</title>
<g id="a_edge8_Node000003_Node000008"><a xlink:title=" ">
<path fill="none" stroke="#63b8ff" d="M501.48,-109.84C492.68,-101.26 481.43,-90.3 472.33,-81.42"/>
<polygon fill="#63b8ff" stroke="#63b8ff" points="474.59,-78.74 464.99,-74.27 469.71,-83.75 474.59,-78.74"/>
</a>
</g>
</g>
<!-- Node9 -->
<g id="Node000009" class="node">
<title>Node9</title>
<g id="a_Node000009"><a xlink:title=" ">
<polygon fill="#e0e0e0" stroke="#999999" points="631.5,-74 518.5,-74 518.5,-55 631.5,-55 631.5,-74"/>
<text text-anchor="middle" x="575" y="-62" font-family="Helvetica,sans-Serif" font-size="10.00">freertos/FreeRTOS.h</text>
</a>
</g>
</g>
<!-- Node3&#45;&gt;Node9 -->
<g id="edge9_Node000003_Node000009" class="edge">
<title>Node3&#45;&gt;Node9</title>
<g id="a_edge9_Node000003_Node000009"><a xlink:title=" ">
<path fill="none" stroke="#63b8ff" d="M530.28,-109.84C538.93,-101.26 549.99,-90.3 558.94,-81.42"/>
<polygon fill="#63b8ff" stroke="#63b8ff" points="561.52,-83.79 566.16,-74.27 556.59,-78.82 561.52,-83.79"/>
</a>
</g>
</g>
<!-- Node10 -->
<g id="Node000010" class="node">
<title>Node10</title>
<g id="a_Node000010"><a xlink:title=" ">
<polygon fill="#e0e0e0" stroke="#999999" points="216,-74 128,-74 128,-55 216,-55 216,-74"/>
<text text-anchor="middle" x="172" y="-62" font-family="Helvetica,sans-Serif" font-size="10.00">freertos/task.h</text>
</a>
</g>
</g>
<!-- Node3&#45;&gt;Node10 -->
<g id="edge10_Node000003_Node000010" class="edge">
<title>Node3&#45;&gt;Node10</title>
<g id="a_edge10_Node000003_Node000010"><a xlink:title=" ">
<path fill="none" stroke="#63b8ff" d="M456.86,-113.94C392.08,-102.93 289.06,-85.41 226.27,-74.73"/>
<polygon fill="#63b8ff" stroke="#63b8ff" points="226.62,-71.24 216.17,-73.01 225.45,-78.14 226.62,-71.24"/>
</a>
</g>
</g>
<!-- Node11 -->
<g id="Node000011" class="node">
<title>Node11</title>
<g id="a_Node000011"><a xlink:href="isf15acp4__spi__interface_8hpp.html" target="_top" xlink:title="CRTP&#45;based SPI and GPIO interface for NKK SmartDisplay OLED drivers.">
<polygon fill="white" stroke="#666666" points="879.5,-74 726.5,-74 726.5,-55 879.5,-55 879.5,-74"/>
<text text-anchor="middle" x="803" y="-62" font-family="Helvetica,sans-Serif" font-size="10.00">isf15acp4_spi_interface.hpp</text>
</a>
</g>
</g>
<!-- Node3&#45;&gt;Node11 -->
<g id="edge11_Node000003_Node000011" class="edge">
<title>Node3&#45;&gt;Node11</title>
<g id="a_edge11_Node000003_Node000011"><a xlink:title=" ">
<path fill="none" stroke="#63b8ff" d="M575.12,-111.95C627.01,-101.37 701.72,-86.14 751.28,-76.04"/>
<polygon fill="#63b8ff" stroke="#63b8ff" points="752.05,-79.46 761.15,-74.03 750.65,-72.6 752.05,-79.46"/>
</a>
</g>
</g>
<!-- Node11&#45;&gt;Node4 -->
<g id="edge12_Node000011_Node000004" class="edge">
<title>Node11&#45;&gt;Node4</title>
<g id="a_edge12_Node000011_Node000004"><a xlink:title=" ">
<path fill="none" stroke="#63b8ff" d="M832.08,-54.98C863.42,-45.81 913.35,-31.19 947.35,-21.23"/>
<polygon fill="#63b8ff" stroke="#63b8ff" points="948.74,-24.47 957.35,-18.3 946.77,-17.75 948.74,-24.47"/>
</a>
</g>
</g>
<!-- Node11&#45;&gt;Node5 -->
<g id="edge13_Node000011_Node000005" class="edge">
<title>Node11&#45;&gt;Node5</title>
<g id="a_edge13_Node000011_Node000005"><a xlink:title=" ">
<path fill="none" stroke="#63b8ff" d="M879.95,-56.28C884.71,-55.85 889.42,-55.42 894,-55 1070.9,-38.96 1282.67,-20.61 1364.93,-13.52"/>
<polygon fill="#63b8ff" stroke="#63b8ff" points="1365.32,-17 1374.99,-12.65 1364.72,-10.02 1365.32,-17"/>
</a>
</g>
</g>
<!-- Node12&#45;&gt;Node5 -->
<g id="edge15_Node000012_Node000005" class="edge">
<title>Node12&#45;&gt;Node5</title>
<g id="a_edge15_Node000012_Node000005"><a xlink:title=" ">
<path fill="none" stroke="#63b8ff" d="M1544.4,-373.84C1582.37,-368.79 1629.67,-356.47 1661,-327 1684.65,-304.75 1685,-290.47 1685,-258 1685,-258 1685,-258 1685,-124 1685,-91.53 1685.78,-75.98 1661,-55 1627.5,-26.64 1498.76,-15.83 1435.5,-12.17"/>
<polygon fill="#63b8ff" stroke="#63b8ff" points="1435.39,-8.66 1425.21,-11.6 1435,-15.64 1435.39,-8.66"/>
</a>
</g>
</g>
<!-- Node13&#45;&gt;Node4 -->
<g id="edge17_Node000013_Node000004" class="edge">
<title>Node13&#45;&gt;Node4</title>
<g id="a_edge17_Node000013_Node000004"><a xlink:title=" ">
<path fill="none" stroke="#63b8ff" d="M1116.46,-375.08C1002.33,-368.8 698,-343.96 698,-258 698,-258 698,-258 698,-124 698,-92.07 694.15,-76.23 718,-55 751.3,-25.37 882.21,-15.2 947.11,-11.93"/>
<polygon fill="#63b8ff" stroke="#63b8ff" points="947.49,-15.42 957.31,-11.45 947.15,-8.43 947.49,-15.42"/>
</a>
</g>
</g>
<!-- Node13&#45;&gt;Node5 -->
<g id="edge18_Node000013_Node000005" class="edge">
<title>Node13&#45;&gt;Node5</title>
<g id="a_edge18_Node000013_Node000005"><a xlink:title=" ">
<path fill="none" stroke="#63b8ff" d="M1201.61,-375.17C1311.07,-370.08 1595.82,-354.33 1628,-327 1652.24,-306.41 1647,-289.81 1647,-258 1647,-258 1647,-258 1647,-124 1647,-31.94 1503.59,-14.28 1435.32,-11.08"/>
<polygon fill="#63b8ff" stroke="#63b8ff" points="1435.17,-7.58 1425.04,-10.69 1434.9,-14.57 1435.17,-7.58"/>
</a>
</g>
</g>
<!-- Node13&#45;&gt;Node11 -->
<g id="edge43_Node000013_Node000011" class="edge">
<title>Node13&#45;&gt;Node11</title>
<g id="a_edge43_Node000013_Node000011"><a xlink:title=" ">
<path fill="none" stroke="#63b8ff" d="M1116.33,-370.76C1027.31,-356.53 830,-318.21 830,-258 830,-258 830,-258 830,-190 830,-151.45 817.48,-107.68 809.49,-83.67"/>
<polygon fill="#63b8ff" stroke="#63b8ff" points="812.77,-82.43 806.2,-74.11 806.15,-84.71 812.77,-82.43"/>
</a>
</g>
</g>
<!-- Node14 -->
<g id="Node000014" class="node">
<title>Node14</title>
<g id="a_Node000014"><a xlink:href="isf15acp4__button__ui_8hpp.html" target="_top" xlink:title="High&#45;level button + display interaction patterns for SmartDisplay.">
<polygon fill="white" stroke="#666666" points="1619,-327 1483,-327 1483,-308 1619,-308 1619,-327"/>
<text text-anchor="middle" x="1551" y="-315" font-family="Helvetica,sans-Serif" font-size="10.00">isf15acp4_button_ui.hpp</text>
</a>
</g>
</g>
<!-- Node13&#45;&gt;Node14 -->
<g id="edge19_Node000013_Node000014" class="edge">
<title>Node13&#45;&gt;Node14</title>
<g id="a_edge19_Node000013_Node000014"><a xlink:title=" ">
<path fill="none" stroke="#63b8ff" d="M1201.7,-370.63C1269.63,-360.49 1402.89,-340.6 1483.74,-328.54"/>
<polygon fill="#63b8ff" stroke="#63b8ff" points="1484.45,-331.97 1493.82,-327.03 1483.41,-325.05 1484.45,-331.97"/>
</a>
</g>
</g>
<!-- Node15 -->
<g id="Node000015" class="node">
<title>Node15</title>
<g id="a_Node000015"><a xlink:href="isf15acp4__graphics__context_8hpp.html" target="_top" xlink:title="Runtime&#45;selectable graphics backend for SmartDisplay applications.">
<polygon fill="white" stroke="#666666" points="1176,-272 1066,-272 1066,-242 1176,-242 1176,-272"/>
<text text-anchor="start" x="1074" y="-260" font-family="Helvetica,sans-Serif" font-size="10.00">isf15acp4_graphics</text>
<text text-anchor="middle" x="1121" y="-249" font-family="Helvetica,sans-Serif" font-size="10.00">_context.hpp</text>
</a>
</g>
</g>
<!-- Node13&#45;&gt;Node15 -->
<g id="edge42_Node000013_Node000015" class="edge">
<title>Node13&#45;&gt;Node15</title>
<g id="a_edge42_Node000013_Node000015"><a xlink:title=" ">
<path fill="none" stroke="#63b8ff" d="M1156.27,-368.44C1150.56,-350.56 1137.19,-308.7 1128.65,-281.96"/>
<polygon fill="#63b8ff" stroke="#63b8ff" points="1131.91,-280.66 1125.53,-272.2 1125.24,-282.79 1131.91,-280.66"/>
</a>
</g>
</g>
<!-- Node16 -->
<g id="Node000016" class="node">
<title>Node16</title>
<g id="a_Node000016"><a xlink:href="isf15acp4__canvas_8hpp.html" target="_top" xlink:title="Software framebuffer and 2D drawing primitives for SmartDisplay OLEDs.">
<polygon fill="white" stroke="#666666" points="1031.5,-200.5 906.5,-200.5 906.5,-181.5 1031.5,-181.5 1031.5,-200.5"/>
<text text-anchor="middle" x="969" y="-188.5" font-family="Helvetica,sans-Serif" font-size="10.00">isf15acp4_canvas.hpp</text>
</a>
</g>
</g>
<!-- Node13&#45;&gt;Node16 -->
<g id="edge41_Node000013_Node000016" class="edge">
<title>Node13&#45;&gt;Node16</title>
<g id="a_edge41_Node000013_Node000016"><a xlink:title=" ">
<path fill="none" stroke="#63b8ff" d="M1150.09,-368.33C1120.36,-339.38 1024.28,-245.82 985.48,-208.04"/>
<polygon fill="#63b8ff" stroke="#63b8ff" points="987.72,-205.34 978.11,-200.87 982.83,-210.36 987.72,-205.34"/>
</a>
</g>
</g>
<!-- Node17 -->
<g id="Node000017" class="node">
<title>Node17</title>
<g id="a_Node000017"><a xlink:href="isf15acp4__types_8hpp.html" target="_top" xlink:title="Shared types, constants, and color utilities for NKK SmartDisplay OLED drivers.">
<polygon fill="white" stroke="#666666" points="1333.5,-74 1216.5,-74 1216.5,-55 1333.5,-55 1333.5,-74"/>
<text text-anchor="middle" x="1275" y="-62" font-family="Helvetica,sans-Serif" font-size="10.00">isf15acp4_types.hpp</text>
</a>
</g>
</g>
<!-- Node13&#45;&gt;Node17 -->
<g id="edge48_Node000013_Node000017" class="edge">
<title>Node13&#45;&gt;Node17</title>
<g id="a_edge48_Node000013_Node000017"><a xlink:title=" ">
<path fill="none" stroke="#63b8ff" d="M1163.44,-368.19C1178.74,-337.47 1229.99,-232 1259,-140 1264.83,-121.5 1269.23,-99.75 1271.93,-84.55"/>
<polygon fill="#63b8ff" stroke="#63b8ff" points="1275.43,-84.8 1273.65,-74.36 1268.53,-83.63 1275.43,-84.8"/>
</a>
</g>
</g>
<!-- Node24 -->
<g id="Node000024" class="node">
<title>Node24</title>
<g id="a_Node000024"><a xlink:href="isf15acp4__ssd1331_8hpp.html" target="_top" xlink:title="SSD1331 command constants and initialization tables for NKK SmartDisplay.">
<polygon fill="white" stroke="#666666" points="1449.5,-134.5 1318.5,-134.5 1318.5,-115.5 1449.5,-115.5 1449.5,-134.5"/>
<text text-anchor="middle" x="1384" y="-122.5" font-family="Helvetica,sans-Serif" font-size="10.00">isf15acp4_ssd1331.hpp</text>
</a>
</g>
</g>
<!-- Node13&#45;&gt;Node24 -->
<g id="edge44_Node000013_Node000024" class="edge">
<title>Node13&#45;&gt;Node24</title>
<g id="a_edge44_Node000013_Node000024"><a xlink:title=" ">
<path fill="none" stroke="#63b8ff" d="M1165.18,-368.48C1175.16,-354.99 1195.74,-328.17 1216,-308 1233.91,-290.18 1241.97,-289.7 1260,-272 1304.32,-228.48 1349.98,-170.74 1371.43,-142.7"/>
<polygon fill="#63b8ff" stroke="#63b8ff" points="1374.25,-144.78 1377.51,-134.7 1368.67,-140.54 1374.25,-144.78"/>
</a>
</g>
</g>
<!-- Node25 -->
<g id="Node000025" class="node">
<title>Node25</title>
<g id="a_Node000025"><a xlink:title=" ">
<polygon fill="#e0e0e0" stroke="#999999" points="1339,-327 1225,-327 1225,-308 1339,-308 1339,-327"/>
<text text-anchor="middle" x="1282" y="-315" font-family="Helvetica,sans-Serif" font-size="10.00">isf15acp4_version.h</text>
</a>
</g>
</g>
<!-- Node13&#45;&gt;Node25 -->
<g id="edge49_Node000013_Node000025" class="edge">
<title>Node13&#45;&gt;Node25</title>
<g id="a_edge49_Node000013_Node000025"><a xlink:title=" ">
<path fill="none" stroke="#63b8ff" d="M1176.89,-368.49C1197.38,-358.75 1231.19,-342.66 1254.92,-331.38"/>
<polygon fill="#63b8ff" stroke="#63b8ff" points="1256.57,-334.47 1264.09,-327.02 1253.56,-328.15 1256.57,-334.47"/>
</a>
</g>
</g>
<!-- Node26 -->
<g id="Node000026" class="node">
<title>Node26</title>
<g id="a_Node000026"><a xlink:href="isf15acp4_8ipp.html" target="_top" xlink:title=" ">
<polygon fill="white" stroke="#666666" points="1465,-327 1357,-327 1357,-308 1465,-308 1465,-327"/>
<text text-anchor="middle" x="1411" y="-315" font-family="Helvetica,sans-Serif" font-size="10.00">../src/isf15acp4.ipp</text>
</a>
</g>
</g>
<!-- Node13&#45;&gt;Node26 -->
<g id="edge50_Node000013_Node000026" class="edge">
<title>Node13&#45;&gt;Node26</title>
<g id="a_edge50_Node000013_Node000026"><a xlink:title=" ">
<path fill="none" stroke="#63b8ff" d="M1195.64,-368.49C1240.25,-358.14 1315.63,-340.64 1364.34,-329.33"/>
<polygon fill="#63b8ff" stroke="#63b8ff" points="1365.36,-332.69 1374.31,-327.02 1363.78,-325.87 1365.36,-332.69"/>
</a>
</g>
</g>
<!-- Node14&#45;&gt;Node5 -->
<g id="edge20_Node000014_Node000005" class="edge">
<title>Node14&#45;&gt;Node5</title>
<g id="a_edge20_Node000014_Node000005"><a xlink:title=" ">
<path fill="none" stroke="#63b8ff" d="M1551.36,-307.75C1552.15,-287.42 1554,-235.46 1554,-192 1554,-192 1554,-192 1554,-124 1554,-65.18 1480.29,-33.42 1434.86,-19.44"/>
<polygon fill="#63b8ff" stroke="#63b8ff" points="1435.67,-16.02 1425.09,-16.56 1433.69,-22.74 1435.67,-16.02"/>
</a>
</g>
</g>
<!-- Node14&#45;&gt;Node15 -->
<g id="edge21_Node000014_Node000015" class="edge">
<title>Node14&#45;&gt;Node15</title>
<g id="a_edge21_Node000014_Node000015"><a xlink:title=" ">
<path fill="none" stroke="#63b8ff" d="M1488.47,-307.99C1407.75,-297.01 1267.96,-277.99 1186.03,-266.85"/>
<polygon fill="#63b8ff" stroke="#63b8ff" points="1186.47,-263.38 1176.09,-265.5 1185.53,-270.31 1186.47,-263.38"/>
</a>
</g>
</g>
<!-- Node22 -->
<g id="Node000022" class="node">
<title>Node22</title>
<g id="a_Node000022"><a xlink:href="isf15acp4__button__ui_8ipp.html" target="_top" xlink:title=" ">
<polygon fill="white" stroke="#666666" points="1525.5,-272 1398.5,-272 1398.5,-242 1525.5,-242 1525.5,-272"/>
<text text-anchor="start" x="1406.5" y="-260" font-family="Helvetica,sans-Serif" font-size="10.00">../src/isf15acp4_button</text>
<text text-anchor="middle" x="1462" y="-249" font-family="Helvetica,sans-Serif" font-size="10.00">_ui.ipp</text>
</a>
</g>
</g>
<!-- Node14&#45;&gt;Node22 -->
<g id="edge39_Node000014_Node000022" class="edge">
<title>Node14&#45;&gt;Node22</title>
<g id="a_edge39_Node000014_Node000022"><a xlink:title=" ">
<path fill="none" stroke="#63b8ff" d="M1537.87,-307.87C1525.9,-300 1507.78,-288.09 1492.25,-277.89"/>
<polygon fill="#63b8ff" stroke="#63b8ff" points="1493.75,-274.68 1483.47,-272.11 1489.91,-280.53 1493.75,-274.68"/>
</a>
</g>
</g>
<!-- Node15&#45;&gt;Node4 -->
<g id="edge22_Node000015_Node000004" class="edge">
<title>Node15&#45;&gt;Node4</title>
<g id="a_edge22_Node000015_Node000004"><a xlink:title=" ">
<path fill="none" stroke="#63b8ff" d="M1065.86,-251.39C1006.77,-245.18 918.64,-231.78 898,-206 851.68,-148.14 930.12,-61.45 966.74,-26.22"/>
<polygon fill="#63b8ff" stroke="#63b8ff" points="969.37,-28.55 974.25,-19.15 964.57,-23.45 969.37,-28.55"/>
</a>
</g>
</g>
<!-- Node15&#45;&gt;Node5 -->
<g id="edge23_Node000015_Node000005" class="edge">
<title>Node15&#45;&gt;Node5</title>
<g id="a_edge23_Node000015_Node000005"><a xlink:title=" ">
<path fill="none" stroke="#63b8ff" d="M1176.29,-246.15C1267.27,-228.68 1442.09,-189.43 1478,-140 1491.42,-121.52 1465,-57.85 1463,-55 1453.91,-42.03 1439.77,-31.54 1427.19,-24.01"/>
<polygon fill="#63b8ff" stroke="#63b8ff" points="1428.83,-20.92 1418.4,-19.06 1425.39,-27.02 1428.83,-20.92"/>
</a>
</g>
</g>
<!-- Node15&#45;&gt;Node16 -->
<g id="edge24_Node000015_Node000016" class="edge">
<title>Node15&#45;&gt;Node16</title>
<g id="a_edge24_Node000015_Node000016"><a xlink:title=" ">
<path fill="none" stroke="#63b8ff" d="M1087.64,-241.95C1061.1,-230.78 1024.31,-215.29 998.76,-204.53"/>
<polygon fill="#63b8ff" stroke="#63b8ff" points="999.8,-201.17 989.23,-200.52 997.09,-207.62 999.8,-201.17"/>
</a>
</g>
</g>
<!-- Node20 -->
<g id="Node000020" class="node">
<title>Node20</title>
<g id="a_Node000020"><a xlink:href="isf15acp4__graphics__surface_8hpp.html" target="_top" xlink:title="Pluggable graphics surface interface for interchangeable render backends.">
<polygon fill="white" stroke="#666666" points="1224,-140 1114,-140 1114,-110 1224,-110 1224,-140"/>
<text text-anchor="start" x="1122" y="-128" font-family="Helvetica,sans-Serif" font-size="10.00">isf15acp4_graphics</text>
<text text-anchor="middle" x="1169" y="-117" font-family="Helvetica,sans-Serif" font-size="10.00">_surface.hpp</text>
</a>
</g>
</g>
<!-- Node15&#45;&gt;Node20 -->
<g id="edge34_Node000015_Node000020" class="edge">
<title>Node15&#45;&gt;Node20</title>
<g id="a_edge34_Node000015_Node000020"><a xlink:title=" ">
<path fill="none" stroke="#63b8ff" d="M1156.07,-241.85C1171.23,-233.77 1187.43,-222 1196,-206 1205.8,-187.68 1196.47,-165.12 1186.19,-148.63"/>
<polygon fill="#63b8ff" stroke="#63b8ff" points="1188.98,-146.51 1180.5,-140.16 1183.17,-150.42 1188.98,-146.51"/>
</a>
</g>
</g>
<!-- Node21 -->
<g id="Node000021" class="node">
<title>Node21</title>
<g id="a_Node000021"><a xlink:href="isf15acp4__graphics__context_8ipp.html" target="_top" xlink:title=" ">
<polygon fill="white" stroke="#666666" points="1186.5,-206 1049.5,-206 1049.5,-176 1186.5,-176 1186.5,-206"/>
<text text-anchor="start" x="1057.5" y="-194" font-family="Helvetica,sans-Serif" font-size="10.00">../src/isf15acp4_graphics</text>
<text text-anchor="middle" x="1118" y="-183" font-family="Helvetica,sans-Serif" font-size="10.00">_context.ipp</text>
</a>
</g>
</g>
<!-- Node15&#45;&gt;Node21 -->
<g id="edge38_Node000015_Node000021" class="edge">
<title>Node15&#45;&gt;Node21</title>
<g id="a_edge38_Node000015_Node000021"><a xlink:title=" ">
<path fill="none" stroke="#63b8ff" d="M1120.33,-241.8C1119.98,-234.34 1119.55,-224.99 1119.14,-216.41"/>
<polygon fill="#63b8ff" stroke="#63b8ff" points="1122.63,-215.99 1118.66,-206.16 1115.64,-216.32 1122.63,-215.99"/>
</a>
</g>
</g>
<!-- Node16&#45;&gt;Node4 -->
<g id="edge25_Node000016_Node000004" class="edge">
<title>Node16&#45;&gt;Node4</title>
<g id="a_edge25_Node000016_Node000004"><a xlink:title=" ">
<path fill="none" stroke="#63b8ff" d="M961.88,-181.47C954.5,-172.02 943.43,-156 939,-140 935.44,-127.15 935.52,-122.87 939,-110 943.83,-92.12 952.03,-90.72 960,-74 967.05,-59.21 973.52,-41.75 977.97,-28.88"/>
<polygon fill="#63b8ff" stroke="#63b8ff" points="981.31,-29.91 981.19,-19.32 974.68,-27.68 981.31,-29.91"/>
</a>
</g>
</g>
<!-- Node16&#45;&gt;Node5 -->
<g id="edge26_Node000016_Node000005" class="edge">
<title>Node16&#45;&gt;Node5</title>
<g id="a_edge26_Node000016_Node000005"><a xlink:title=" ">
<path fill="none" stroke="#63b8ff" d="M1008.86,-181.47C1019.28,-179.45 1030.53,-177.46 1041,-176 1087.17,-169.54 1427.48,-174.35 1459,-140 1490.32,-105.87 1444.11,-52.27 1417.14,-26.03"/>
<polygon fill="#63b8ff" stroke="#63b8ff" points="1419.48,-23.42 1409.81,-19.1 1414.68,-28.51 1419.48,-23.42"/>
</a>
</g>
</g>
<!-- Node16&#45;&gt;Node17 -->
<g id="edge27_Node000016_Node000017" class="edge">
<title>Node16&#45;&gt;Node17</title>
<g id="a_edge27_Node000016_Node000017"><a xlink:title=" ">
<path fill="none" stroke="#63b8ff" d="M1012.78,-181.44C1022.09,-179.63 1031.87,-177.74 1041,-176 1126.28,-159.71 1162.41,-190.54 1233,-140 1252.19,-126.26 1263.75,-100.85 1269.75,-83.56"/>
<polygon fill="#63b8ff" stroke="#63b8ff" points="1273.08,-84.62 1272.78,-74.03 1266.41,-82.5 1273.08,-84.62"/>
</a>
</g>
</g>
<!-- Node18 -->
<g id="Node000018" class="node">
<title>Node18</title>
<g id="a_Node000018"><a xlink:href="isf15acp4__canvas_8ipp.html" target="_top" xlink:title=" ">
<polygon fill="white" stroke="#666666" points="1096,-134.5 948,-134.5 948,-115.5 1096,-115.5 1096,-134.5"/>
<text text-anchor="middle" x="1022" y="-122.5" font-family="Helvetica,sans-Serif" font-size="10.00">../src/isf15acp4_canvas.ipp</text>
</a>
</g>
</g>
<!-- Node16&#45;&gt;Node18 -->
<g id="edge30_Node000016_Node000018" class="edge">
<title>Node16&#45;&gt;Node18</title>
<g id="a_edge30_Node000016_Node000018"><a xlink:title=" ">
<path fill="none" stroke="#63b8ff" d="M976.15,-181.37C984.32,-171.5 997.89,-155.11 1008.16,-142.72"/>
<polygon fill="#63b8ff" stroke="#63b8ff" points="1010.94,-144.84 1014.63,-134.91 1005.55,-140.37 1010.94,-144.84"/>
</a>
</g>
</g>
<!-- Node17&#45;&gt;Node4 -->
<g id="edge28_Node000017_Node000004" class="edge">
<title>Node17&#45;&gt;Node4</title>
<g id="a_edge28_Node000017_Node000004"><a xlink:title=" ">
<path fill="none" stroke="#63b8ff" d="M1228.25,-54.98C1170.41,-44.45 1073.15,-26.74 1020.51,-17.15"/>
<polygon fill="#63b8ff" stroke="#63b8ff" points="1021.06,-13.69 1010.6,-15.34 1019.81,-20.58 1021.06,-13.69"/>
</a>
</g>
</g>
<!-- Node17&#45;&gt;Node5 -->
<g id="edge29_Node000017_Node000005" class="edge">
<title>Node17&#45;&gt;Node5</title>
<g id="a_edge29_Node000017_Node000005"><a xlink:title=" ">
<path fill="none" stroke="#63b8ff" d="M1295.08,-54.98C1315.37,-46.38 1346.96,-32.99 1370.17,-23.15"/>
<polygon fill="#63b8ff" stroke="#63b8ff" points="1371.71,-26.3 1379.55,-19.17 1368.98,-19.85 1371.71,-26.3"/>
</a>
</g>
</g>
<!-- Node19 -->
<g id="Node000019" class="node">
<title>Node19</title>
<g id="a_Node000019"><a xlink:href="isf15acp4__font_8hpp.html" target="_top" xlink:title="Compact 5x7 bitmap font for SmartDisplay text rendering.">
<polygon fill="white" stroke="#666666" points="1122,-74 1012,-74 1012,-55 1122,-55 1122,-74"/>
<text text-anchor="middle" x="1067" y="-62" font-family="Helvetica,sans-Serif" font-size="10.00">isf15acp4_font.hpp</text>
</a>
</g>
</g>
<!-- Node18&#45;&gt;Node19 -->
<g id="edge31_Node000018_Node000019" class="edge">
<title>Node18&#45;&gt;Node19</title>
<g id="a_edge31_Node000018_Node000019"><a xlink:title=" ">
<path fill="none" stroke="#63b8ff" d="M1028.64,-115.37C1035.29,-106.73 1045.69,-93.2 1053.99,-82.42"/>
<polygon fill="#63b8ff" stroke="#63b8ff" points="1057.01,-84.23 1060.33,-74.17 1051.46,-79.96 1057.01,-84.23"/>
</a>
</g>
</g>
<!-- Node19&#45;&gt;Node4 -->
<g id="edge32_Node000019_Node000004" class="edge">
<title>Node19&#45;&gt;Node4</title>
<g id="a_edge32_Node000019_Node000004"><a xlink:title=" ">
<path fill="none" stroke="#63b8ff" d="M1053.66,-54.98C1040.91,-46.84 1021.45,-34.41 1006.33,-24.76"/>
<polygon fill="#63b8ff" stroke="#63b8ff" points="1007.89,-21.6 997.58,-19.17 1004.12,-27.5 1007.89,-21.6"/>
</a>
</g>
</g>
<!-- Node19&#45;&gt;Node5 -->
<g id="edge33_Node000019_Node000005" class="edge">
<title>Node19&#45;&gt;Node5</title>
<g id="a_edge33_Node000019_Node000005"><a xlink:title=" ">
<path fill="none" stroke="#63b8ff" d="M1120.5,-54.98C1189.04,-44.08 1305.95,-25.47 1364.45,-16.16"/>
<polygon fill="#63b8ff" stroke="#63b8ff" points="1365.35,-19.56 1374.67,-14.53 1364.25,-12.65 1365.35,-19.56"/>
</a>
</g>
</g>
<!-- Node20&#45;&gt;Node4 -->
<g id="edge35_Node000020_Node000004" class="edge">
<title>Node20&#45;&gt;Node4</title>
<g id="a_edge35_Node000020_Node000004"><a xlink:title=" ">
<path fill="none" stroke="#63b8ff" d="M1164.85,-109.99C1159.51,-94.36 1148.75,-69.37 1131,-55 1099.35,-29.37 1053.14,-18.48 1021.01,-13.87"/>
<polygon fill="#63b8ff" stroke="#63b8ff" points="1021.06,-10.35 1010.7,-12.53 1020.16,-17.29 1021.06,-10.35"/>
</a>
</g>
</g>
<!-- Node20&#45;&gt;Node5 -->
<g id="edge36_Node000020_Node000005" class="edge">
<title>Node20&#45;&gt;Node5</title>
<g id="a_edge36_Node000020_Node000005"><a xlink:title=" ">
<path fill="none" stroke="#63b8ff" d="M1173.19,-109.77C1178.61,-93.93 1189.6,-68.76 1208,-55 1254.38,-20.32 1323.37,-12.04 1364.79,-10.42"/>
<polygon fill="#63b8ff" stroke="#63b8ff" points="1365.05,-13.91 1374.95,-10.13 1364.85,-6.92 1365.05,-13.91"/>
</a>
</g>
</g>
<!-- Node20&#45;&gt;Node17 -->
<g id="edge37_Node000020_Node000017" class="edge">
<title>Node20&#45;&gt;Node17</title>
<g id="a_edge37_Node000020_Node000017"><a xlink:title=" ">
<path fill="none" stroke="#63b8ff" d="M1194.39,-109.99C1211.29,-100.66 1233.38,-88.47 1250.16,-79.21"/>
<polygon fill="#63b8ff" stroke="#63b8ff" points="1252.28,-82.04 1259.35,-74.14 1248.9,-75.91 1252.28,-82.04"/>
</a>
</g>
</g>
<!-- Node23 -->
<g id="Node000023" class="node">
<title>Node23</title>
<g id="a_Node000023"><a xlink:title=" ">
<polygon fill="#e0e0e0" stroke="#999999" points="1485.5,-200.5 1438.5,-200.5 1438.5,-181.5 1485.5,-181.5 1485.5,-200.5"/>
<text text-anchor="middle" x="1462" y="-188.5" font-family="Helvetica,sans-Serif" font-size="10.00">cmath</text>
</a>
</g>
</g>
<!-- Node22&#45;&gt;Node23 -->
<g id="edge40_Node000022_Node000023" class="edge">
<title>Node22&#45;&gt;Node23</title>
<g id="a_edge40_Node000022_Node000023"><a xlink:title=" ">
<path fill="none" stroke="#63b8ff" d="M1462,-241.8C1462,-232.7 1462,-220.79 1462,-210.9"/>
<polygon fill="#63b8ff" stroke="#63b8ff" points="1465.5,-210.84 1462,-200.84 1458.5,-210.84 1465.5,-210.84"/>
</a>
</g>
</g>
<!-- Node24&#45;&gt;Node4 -->
<g id="edge45_Node000024_Node000004" class="edge">
<title>Node24&#45;&gt;Node4</title>
<g id="a_edge45_Node000024_Node000004"><a xlink:title=" ">
<path fill="none" stroke="#63b8ff" d="M1381.65,-115.49C1377.01,-100.48 1365.16,-69.49 1343,-55 1290.49,-20.67 1101.3,-12.82 1020.74,-11.03"/>
<polygon fill="#63b8ff" stroke="#63b8ff" points="1020.64,-7.53 1010.57,-10.82 1020.49,-14.53 1020.64,-7.53"/>
</a>
</g>
</g>
<!-- Node24&#45;&gt;Node5 -->
<g id="edge46_Node000024_Node000005" class="edge">
<title>Node24&#45;&gt;Node5</title>
<g id="a_edge46_Node000024_Node000005"><a xlink:title=" ">
<path fill="none" stroke="#63b8ff" d="M1385.2,-115.47C1387.77,-97.23 1393.86,-54.07 1397.37,-29.14"/>
<polygon fill="#63b8ff" stroke="#63b8ff" points="1400.85,-29.52 1398.78,-19.13 1393.92,-28.54 1400.85,-29.52"/>
</a>
</g>
</g>
<!-- Node24&#45;&gt;Node17 -->
<g id="edge47_Node000024_Node000017" class="edge">
<title>Node24&#45;&gt;Node17</title>
<g id="a_edge47_Node000024_Node000017"><a xlink:title=" ">
<path fill="none" stroke="#63b8ff" d="M1367.92,-115.37C1350.05,-105.78 1320.96,-90.17 1300.09,-78.97"/>
<polygon fill="#63b8ff" stroke="#63b8ff" points="1301.62,-75.81 1291.15,-74.17 1298.31,-81.98 1301.62,-75.81"/>
</a>
</g>
</g>
</g>
</svg>
