<?xml version="1.0" encoding="UTF-8" standalone="no"?>
<!DOCTYPE svg PUBLIC "-//W3C//DTD SVG 1.1//EN"
 "http://www.w3.org/Graphics/SVG/1.1/DTD/svg11.dtd">
<!-- Generated by graphviz version 2.43.0 (0)
 -->
<!-- Title: examples/esp32/main/isf15acp4_comprehensive_test.cpp Pages: 1 -->
<svg width="1622pt" height="533pt"
 viewBox="0.00 0.00 1621.92 533.00" xmlns="http://www.w3.org/2000/svg" xmlns:xlink="http://www.w3.org/1999/xlink">
<g id="graph0" class="graph" transform="scale(1 1) rotate(0) translate(4 529)">
<title>examples/esp32/main/isf15acp4_comprehensive_test.cpp</title>
<!-- Node1 -->
<g id="Node000001" class="node">
<title>Node1</title>
<g id="a_Node000001"><a xlink:title="Comprehensive ISF15ACP4 SmartDisplay driver validation for ESP32.">
<polygon fill="#999999" stroke="#666666" points="698.42,-525 551.42,-525 551.42,-484 698.42,-484 698.42,-525"/>
<text text-anchor="start" x="559.42" y="-513" font-family="Helvetica,sans-Serif" font-size="10.00">examples/esp32/main</text>
<text text-anchor="start" x="559.42" y="-502" font-family="Helvetica,sans-Serif" font-size="10.00">/isf15acp4_comprehensive</text>
<text text-anchor="middle" x="624.92" y="-491" font-family="Helvetica,sans-Serif" font-size="10.00">_test.cpp</text>
</a>
</g>
</g>
<!-- Node2 -->
<g id="Node000002" class="node">
<title>Node2</title>
<g id="a_Node000002"><a xlink:href="TestFramework_8h.html" target="_top" xlink:title="Lightweight test harness for ISF15ACP4 ESP32 driver examples.">
<polygon fill="white" stroke="#666666" points="159.92,-387.5 59.92,-387.5 59.92,-368.5 159.92,-368.5 159.92,-387.5"/>
<text text-anchor="middle" x="109.92" y="-375.5" font-family="Helvetica,sans-Serif" font-size="10.00">TestFramework.h</text>
</a>
</g>
</g>
<!-- Node1&#45;&gt;Node2 -->
<g id="edge1_Node000001_Node000002" class="edge">
<title>Node1&#45;&gt;Node2</title>
<g id="a_edge1_Node000001_Node000002"><a xlink:title=" ">
<path fill="none" stroke="#63b8ff" d="M551.2,-491.03C493.84,-480.85 412.41,-465.35 341.92,-448 271.55,-430.68 190.7,-405.38 145.43,-390.71"/>
<polygon fill="#63b8ff" stroke="#63b8ff" points="146.38,-387.34 135.79,-387.58 144.22,-394 146.38,-387.34"/>
</a>
</g>
</g>
<!-- Node3 -->
<g id="Node000003" class="node">
<title>Node3</title>
<g id="a_Node000003"><a xlink:title=" ">
<polygon fill="#e0e0e0" stroke="#999999" points="141.42,-327 78.42,-327 78.42,-308 141.42,-308 141.42,-327"/>
<text text-anchor="middle" x="109.92" y="-315" font-family="Helvetica,sans-Serif" font-size="10.00">esp_log.h</text>
</a>
</g>
</g>
<!-- Node1&#45;&gt;Node3 -->
<g id="edge56_Node000001_Node000003" class="edge">
<title>Node1&#45;&gt;Node3</title>
<g id="a_edge56_Node000001_Node000003"><a xlink:title=" ">
<path fill="none" stroke="#63b8ff" d="M551,-495.11C511.33,-487.72 463.27,-473.88 426.92,-448 389.46,-421.33 406.78,-387.59 367.92,-363 287.97,-312.41 249.54,-342.81 151.66,-326.96"/>
<polygon fill="#63b8ff" stroke="#63b8ff" points="152.13,-323.49 141.68,-325.22 150.93,-330.38 152.13,-323.49"/>
</a>
</g>
</g>
<!-- Node5 -->
<g id="Node000005" class="node">
<title>Node5</title>
<g id="a_Node000005"><a xlink:href="esp32__isf15acp4__setup_8hpp.html" target="_top" xlink:title="Factory helpers for ISF15ACP4 SPI adapter and SmartDisplay config.">
<polygon fill="white" stroke="#666666" points="587.92,-448 435.92,-448 435.92,-429 587.92,-429 587.92,-448"/>
<text text-anchor="middle" x="511.92" y="-436" font-family="Helvetica,sans-Serif" font-size="10.00">esp32_isf15acp4_setup.hpp</text>
</a>
</g>
</g>
<!-- Node1&#45;&gt;Node5 -->
<g id="edge4_Node000001_Node000005" class="edge">
<title>Node1&#45;&gt;Node5</title>
<g id="a_edge4_Node000001_Node000005"><a xlink:title=" ">
<path fill="none" stroke="#63b8ff" d="M590.4,-483.95C572.88,-474.03 552.01,-462.21 536.2,-453.25"/>
<polygon fill="#63b8ff" stroke="#63b8ff" points="537.51,-449.97 527.09,-448.09 534.07,-456.07 537.51,-449.97"/>
</a>
</g>
</g>
<!-- Node11 -->
<g id="Node000011" class="node">
<title>Node11</title>
<g id="a_Node000011"><a xlink:title=" ">
<polygon fill="#e0e0e0" stroke="#999999" points="681.42,-327 568.42,-327 568.42,-308 681.42,-308 681.42,-327"/>
<text text-anchor="middle" x="624.92" y="-315" font-family="Helvetica,sans-Serif" font-size="10.00">freertos/FreeRTOS.h</text>
</a>
</g>
</g>
<!-- Node1&#45;&gt;Node11 -->
<g id="edge58_Node000001_Node000011" class="edge">
<title>Node1&#45;&gt;Node11</title>
<g id="a_edge58_Node000001_Node000011"><a xlink:title=" ">
<path fill="none" stroke="#63b8ff" d="M624.92,-483.7C624.92,-447.86 624.92,-372.67 624.92,-337.46"/>
<polygon fill="#63b8ff" stroke="#63b8ff" points="628.42,-337.16 624.92,-327.16 621.42,-337.16 628.42,-337.16"/>
</a>
</g>
</g>
<!-- Node12 -->
<g id="Node000012" class="node">
<title>Node12</title>
<g id="a_Node000012"><a xlink:title=" ">
<polygon fill="#e0e0e0" stroke="#999999" points="787.92,-327 699.92,-327 699.92,-308 787.92,-308 787.92,-327"/>
<text text-anchor="middle" x="743.92" y="-315" font-family="Helvetica,sans-Serif" font-size="10.00">freertos/task.h</text>
</a>
</g>
</g>
<!-- Node1&#45;&gt;Node12 -->
<g id="edge59_Node000001_Node000012" class="edge">
<title>Node1&#45;&gt;Node12</title>
<g id="a_edge59_Node000001_Node000012"><a xlink:title=" ">
<path fill="none" stroke="#63b8ff" d="M637.65,-483.7C661.11,-447.24 710.76,-370.04 732.88,-335.65"/>
<polygon fill="#63b8ff" stroke="#63b8ff" points="735.88,-337.46 738.35,-327.16 729.99,-333.68 735.88,-337.46"/>
</a>
</g>
</g>
<!-- Node14 -->
<g id="Node000014" class="node">
<title>Node14</title>
<g id="a_Node000014"><a xlink:href="esp32__isf15acp4__test__config_8hpp.html" target="_top" xlink:title="Shared pin and SPI constants for ISF15ACP4 ESP32 examples.">
<polygon fill="white" stroke="#666666" points="358.92,-393 236.92,-393 236.92,-363 358.92,-363 358.92,-393"/>
<text text-anchor="start" x="244.92" y="-381" font-family="Helvetica,sans-Serif" font-size="10.00">esp32_isf15acp4_test</text>
<text text-anchor="middle" x="297.92" y="-370" font-family="Helvetica,sans-Serif" font-size="10.00">_config.hpp</text>
</a>
</g>
</g>
<!-- Node1&#45;&gt;Node14 -->
<g id="edge55_Node000001_Node000014" class="edge">
<title>Node1&#45;&gt;Node14</title>
<g id="a_edge55_Node000001_Node000014"><a xlink:title=" ">
<path fill="none" stroke="#63b8ff" d="M551.41,-497.56C499.19,-490.96 428.74,-477.08 372.92,-448 350.6,-436.38 329.94,-416.37 315.97,-400.89"/>
<polygon fill="#63b8ff" stroke="#63b8ff" points="318.53,-398.49 309.31,-393.27 313.26,-403.1 318.53,-398.49"/>
</a>
</g>
</g>
<!-- Node15 -->
<g id="Node000015" class="node">
<title>Node15</title>
<g id="a_Node000015"><a xlink:href="isf15acp4_8hpp.html" target="_top" xlink:title="Hardware&#45;agnostic driver for NKK SmartDisplay OLED pushbuttons and displays.">
<polygon fill="white" stroke="#666666" points="1010.42,-387.5 925.42,-387.5 925.42,-368.5 1010.42,-368.5 1010.42,-387.5"/>
<text text-anchor="middle" x="967.92" y="-375.5" font-family="Helvetica,sans-Serif" font-size="10.00">isf15acp4.hpp</text>
</a>
</g>
</g>
<!-- Node1&#45;&gt;Node15 -->
<g id="edge60_Node000001_Node000015" class="edge">
<title>Node1&#45;&gt;Node15</title>
<g id="a_edge60_Node000001_Node000015"><a xlink:title=" ">
<path fill="none" stroke="#63b8ff" d="M678.89,-483.91C750.58,-457.89 875.07,-412.7 934.49,-391.13"/>
<polygon fill="#63b8ff" stroke="#63b8ff" points="935.92,-394.34 944.13,-387.63 933.54,-387.76 935.92,-394.34"/>
</a>
</g>
</g>
<!-- Node16 -->
<g id="Node000016" class="node">
<title>Node16</title>
<g id="a_Node000016"><a xlink:href="isf15acp4__button__ui_8hpp.html" target="_top" xlink:title="High&#45;level button + display interaction patterns for SmartDisplay.">
<polygon fill="white" stroke="#666666" points="1465.92,-327 1329.92,-327 1329.92,-308 1465.92,-308 1465.92,-327"/>
<text text-anchor="middle" x="1397.92" y="-315" font-family="Helvetica,sans-Serif" font-size="10.00">isf15acp4_button_ui.hpp</text>
</a>
</g>
</g>
<!-- Node1&#45;&gt;Node16 -->
<g id="edge61_Node000001_Node000016" class="edge">
<title>Node1&#45;&gt;Node16</title>
<g id="a_edge61_Node000001_Node000016"><a xlink:title=" ">
<path fill="none" stroke="#63b8ff" d="M698.69,-485.85C856.68,-448.03 1223.82,-360.17 1352.43,-329.39"/>
<polygon fill="#63b8ff" stroke="#63b8ff" points="1353.43,-332.75 1362.34,-327.01 1351.8,-325.94 1353.43,-332.75"/>
</a>
</g>
</g>
<!-- Node29 -->
<g id="Node000029" class="node">
<title>Node29</title>
<g id="a_Node000029"><a xlink:title=" ">
<polygon fill="#e0e0e0" stroke="#999999" points="1140.92,-448 1066.92,-448 1066.92,-429 1140.92,-429 1140.92,-448"/>
<text text-anchor="middle" x="1103.92" y="-436" font-family="Helvetica,sans-Serif" font-size="10.00">esp_timer.h</text>
</a>
</g>
</g>
<!-- Node1&#45;&gt;Node29 -->
<g id="edge57_Node000001_Node000029" class="edge">
<title>Node1&#45;&gt;Node29</title>
<g id="a_edge57_Node000001_Node000029"><a xlink:title=" ">
<path fill="none" stroke="#63b8ff" d="M698.49,-494.78C783.85,-484.47 928.77,-466.39 1052.92,-448 1054.19,-447.81 1055.48,-447.62 1056.79,-447.42"/>
<polygon fill="#63b8ff" stroke="#63b8ff" points="1057.56,-450.84 1066.9,-445.83 1056.47,-443.92 1057.56,-450.84"/>
</a>
</g>
</g>
<!-- Node2&#45;&gt;Node3 -->
<g id="edge2_Node000002_Node000003" class="edge">
<title>Node2&#45;&gt;Node3</title>
<g id="a_edge2_Node000002_Node000003"><a xlink:title=" ">
<path fill="none" stroke="#63b8ff" d="M109.92,-368.37C109.92,-360.25 109.92,-347.81 109.92,-337.39"/>
<polygon fill="#63b8ff" stroke="#63b8ff" points="113.42,-337.17 109.92,-327.17 106.42,-337.17 113.42,-337.17"/>
</a>
</g>
</g>
<!-- Node4 -->
<g id="Node000004" class="node">
<title>Node4</title>
<g id="a_Node000004"><a xlink:title=" ">
<polygon fill="#e0e0e0" stroke="#999999" points="805.92,-19 755.92,-19 755.92,0 805.92,0 805.92,-19"/>
<text text-anchor="middle" x="780.92" y="-7" font-family="Helvetica,sans-Serif" font-size="10.00">cstdint</text>
</a>
</g>
</g>
<!-- Node2&#45;&gt;Node4 -->
<g id="edge3_Node000002_Node000004" class="edge">
<title>Node2&#45;&gt;Node4</title>
<g id="a_edge3_Node000002_Node000004"><a xlink:title=" ">
<path fill="none" stroke="#63b8ff" d="M95.03,-368.31C67.62,-351.06 11.92,-309.65 11.92,-258 11.92,-258 11.92,-258 11.92,-124 11.92,-105.19 -59.74,-110.45 152.92,-55 266.38,-25.41 630.77,-14.16 745.79,-11.3"/>
<polygon fill="#63b8ff" stroke="#63b8ff" points="745.9,-14.79 755.81,-11.05 745.73,-7.8 745.9,-14.79"/>
</a>
</g>
</g>
<!-- Node6 -->
<g id="Node000006" class="node">
<title>Node6</title>
<g id="a_Node000006"><a xlink:title=" ">
<polygon fill="#e0e0e0" stroke="#999999" points="269.92,-327 159.92,-327 159.92,-308 269.92,-308 269.92,-327"/>
<text text-anchor="middle" x="214.92" y="-315" font-family="Helvetica,sans-Serif" font-size="10.00">driver/spi_master.h</text>
</a>
</g>
</g>
<!-- Node5&#45;&gt;Node6 -->
<g id="edge5_Node000005_Node000006" class="edge">
<title>Node5&#45;&gt;Node6</title>
<g id="a_edge5_Node000005_Node000006"><a xlink:title=" ">
<path fill="none" stroke="#63b8ff" d="M498.55,-428.92C484.78,-420.04 462.74,-405.72 443.92,-393 424.61,-379.95 422.18,-372.54 400.92,-363 362.57,-345.78 316.67,-334.71 280.05,-327.92"/>
<polygon fill="#63b8ff" stroke="#63b8ff" points="280.45,-324.43 269.99,-326.11 279.21,-331.32 280.45,-324.43"/>
</a>
</g>
</g>
<!-- Node7 -->
<g id="Node000007" class="node">
<title>Node7</title>
<g id="a_Node000007"><a xlink:href="esp32__isf15acp4__spi__adapter_8hpp.html" target="_top" xlink:title="ESP&#45;IDF SPI/GPIO adapter for the ISF15ACP4 SmartDisplay driver.">
<polygon fill="white" stroke="#666666" points="570.92,-393 452.92,-393 452.92,-363 570.92,-363 570.92,-393"/>
<text text-anchor="start" x="460.92" y="-381" font-family="Helvetica,sans-Serif" font-size="10.00">esp32_isf15acp4_spi</text>
<text text-anchor="middle" x="511.92" y="-370" font-family="Helvetica,sans-Serif" font-size="10.00">_adapter.hpp</text>
</a>
</g>
</g>
<!-- Node5&#45;&gt;Node7 -->
<g id="edge6_Node000005_Node000007" class="edge">
<title>Node5&#45;&gt;Node7</title>
<g id="a_edge6_Node000005_Node000007"><a xlink:title=" ">
<path fill="none" stroke="#63b8ff" d="M511.92,-428.87C511.92,-422.11 511.92,-412.35 511.92,-403.26"/>
<polygon fill="#63b8ff" stroke="#63b8ff" points="515.42,-403.11 511.92,-393.11 508.42,-403.11 515.42,-403.11"/>
</a>
</g>
</g>
<!-- Node5&#45;&gt;Node14 -->
<g id="edge18_Node000005_Node000014" class="edge">
<title>Node5&#45;&gt;Node14</title>
<g id="a_edge18_Node000005_Node000014"><a xlink:title=" ">
<path fill="none" stroke="#63b8ff" d="M480.8,-428.99C449.06,-420.32 398.97,-406.62 359.23,-395.76"/>
<polygon fill="#63b8ff" stroke="#63b8ff" points="359.94,-392.33 349.37,-393.06 358.09,-399.08 359.94,-392.33"/>
</a>
</g>
</g>
<!-- Node5&#45;&gt;Node15 -->
<g id="edge20_Node000005_Node000015" class="edge">
<title>Node5&#45;&gt;Node15</title>
<g id="a_edge20_Node000005_Node000015"><a xlink:title=" ">
<path fill="none" stroke="#63b8ff" d="M578.22,-428.99C669.4,-417.3 831.64,-396.48 915.1,-385.78"/>
<polygon fill="#63b8ff" stroke="#63b8ff" points="915.65,-389.23 925.13,-384.49 914.76,-382.29 915.65,-389.23"/>
</a>
</g>
</g>
<!-- Node7&#45;&gt;Node3 -->
<g id="edge11_Node000007_Node000003" class="edge">
<title>Node7&#45;&gt;Node3</title>
<g id="a_edge11_Node000007_Node000003"><a xlink:title=" ">
<path fill="none" stroke="#63b8ff" d="M452.73,-369.29C369.82,-358.41 222.25,-338.74 151.52,-326.98"/>
<polygon fill="#63b8ff" stroke="#63b8ff" points="152.11,-323.53 141.66,-325.3 150.93,-330.43 152.11,-323.53"/>
</a>
</g>
</g>
<!-- Node7&#45;&gt;Node4 -->
<g id="edge8_Node000007_Node000004" class="edge">
<title>Node7&#45;&gt;Node4</title>
<g id="a_edge8_Node000007_Node000004"><a xlink:title=" ">
<path fill="none" stroke="#63b8ff" d="M509.94,-362.74C507.03,-340.45 501.92,-295.94 501.92,-258 501.92,-258 501.92,-258 501.92,-124 501.92,-71.93 670.73,-32.19 745.73,-17.11"/>
<polygon fill="#63b8ff" stroke="#63b8ff" points="746.54,-20.52 755.67,-15.14 745.18,-13.65 746.54,-20.52"/>
</a>
</g>
</g>
<!-- Node7&#45;&gt;Node6 -->
<g id="edge10_Node000007_Node000006" class="edge">
<title>Node7&#45;&gt;Node6</title>
<g id="a_edge10_Node000007_Node000006"><a xlink:title=" ">
<path fill="none" stroke="#63b8ff" d="M452.89,-365.37C399.12,-354.78 320.41,-339.28 268.44,-329.04"/>
<polygon fill="#63b8ff" stroke="#63b8ff" points="268.91,-325.57 258.42,-327.07 267.56,-332.44 268.91,-325.57"/>
</a>
</g>
</g>
<!-- Node8 -->
<g id="Node000008" class="node">
<title>Node8</title>
<g id="a_Node000008"><a xlink:title=" ">
<polygon fill="#e0e0e0" stroke="#999999" points="1422.42,-19 1369.42,-19 1369.42,0 1422.42,0 1422.42,-19"/>
<text text-anchor="middle" x="1395.92" y="-7" font-family="Helvetica,sans-Serif" font-size="10.00">cstddef</text>
</a>
</g>
</g>
<!-- Node7&#45;&gt;Node8 -->
<g id="edge7_Node000007_Node000008" class="edge">
<title>Node7&#45;&gt;Node8</title>
<g id="a_edge7_Node000007_Node000008"><a xlink:title=" ">
<path fill="none" stroke="#63b8ff" d="M571.01,-367.26C660.7,-352.74 836.66,-325.28 986.92,-308 1080.86,-297.2 1325.32,-312.18 1410.92,-272 1429.55,-263.25 1466.57,-224.34 1475.92,-206 1495.42,-167.74 1494.71,-152.23 1486.92,-110 1482.17,-84.27 1482.47,-75.27 1465.92,-55 1455.12,-41.77 1439.29,-31.24 1425.42,-23.76"/>
<polygon fill="#63b8ff" stroke="#63b8ff" points="1426.72,-20.49 1416.22,-19.07 1423.54,-26.73 1426.72,-20.49"/>
</a>
</g>
</g>
<!-- Node9 -->
<g id="Node000009" class="node">
<title>Node9</title>
<g id="a_Node000009"><a xlink:title=" ">
<polygon fill="#e0e0e0" stroke="#999999" points="365.92,-327 287.92,-327 287.92,-308 365.92,-308 365.92,-327"/>
<text text-anchor="middle" x="326.92" y="-315" font-family="Helvetica,sans-Serif" font-size="10.00">driver/gpio.h</text>
</a>
</g>
</g>
<!-- Node7&#45;&gt;Node9 -->
<g id="edge9_Node000007_Node000009" class="edge">
<title>Node7&#45;&gt;Node9</title>
<g id="a_edge9_Node000007_Node000009"><a xlink:title=" ">
<path fill="none" stroke="#63b8ff" d="M467.61,-362.99C435.82,-352.94 393.49,-339.55 363.6,-330.1"/>
<polygon fill="#63b8ff" stroke="#63b8ff" points="364.56,-326.73 353.97,-327.05 362.45,-333.41 364.56,-326.73"/>
</a>
</g>
</g>
<!-- Node10 -->
<g id="Node000010" class="node">
<title>Node10</title>
<g id="a_Node000010"><a xlink:title=" ">
<polygon fill="#e0e0e0" stroke="#999999" points="473.42,-327 384.42,-327 384.42,-308 473.42,-308 473.42,-327"/>
<text text-anchor="middle" x="428.92" y="-315" font-family="Helvetica,sans-Serif" font-size="10.00">esp_rom_sys.h</text>
</a>
</g>
</g>
<!-- Node7&#45;&gt;Node10 -->
<g id="edge12_Node000007_Node000010" class="edge">
<title>Node7&#45;&gt;Node10</title>
<g id="a_edge12_Node000007_Node000010"><a xlink:title=" ">
<path fill="none" stroke="#63b8ff" d="M491.83,-362.84C479.04,-353.83 462.52,-342.18 449.62,-333.09"/>
<polygon fill="#63b8ff" stroke="#63b8ff" points="451.55,-330.17 441.36,-327.27 447.51,-335.89 451.55,-330.17"/>
</a>
</g>
</g>
<!-- Node7&#45;&gt;Node11 -->
<g id="edge13_Node000007_Node000011" class="edge">
<title>Node7&#45;&gt;Node11</title>
<g id="a_edge13_Node000007_Node000011"><a xlink:title=" ">
<path fill="none" stroke="#63b8ff" d="M538.98,-362.99C557.16,-353.58 580.99,-341.24 598.94,-331.95"/>
<polygon fill="#63b8ff" stroke="#63b8ff" points="600.96,-334.84 608.23,-327.14 597.74,-328.63 600.96,-334.84"/>
</a>
</g>
</g>
<!-- Node7&#45;&gt;Node12 -->
<g id="edge14_Node000007_Node000012" class="edge">
<title>Node7&#45;&gt;Node12</title>
<g id="a_edge14_Node000007_Node000012"><a xlink:title=" ">
<path fill="none" stroke="#63b8ff" d="M567.49,-362.99C608.05,-352.76 662.28,-339.09 699.86,-329.61"/>
<polygon fill="#63b8ff" stroke="#63b8ff" points="701.16,-332.89 710,-327.05 699.44,-326.1 701.16,-332.89"/>
</a>
</g>
</g>
<!-- Node13 -->
<g id="Node000013" class="node">
<title>Node13</title>
<g id="a_Node000013"><a xlink:href="isf15acp4__spi__interface_8hpp.html" target="_top" xlink:title="CRTP&#45;based SPI and GPIO interface for NKK SmartDisplay OLED drivers.">
<polygon fill="white" stroke="#666666" points="893.42,-266.5 740.42,-266.5 740.42,-247.5 893.42,-247.5 893.42,-266.5"/>
<text text-anchor="middle" x="816.92" y="-254.5" font-family="Helvetica,sans-Serif" font-size="10.00">isf15acp4_spi_interface.hpp</text>
</a>
</g>
</g>
<!-- Node7&#45;&gt;Node13 -->
<g id="edge15_Node000007_Node000013" class="edge">
<title>Node7&#45;&gt;Node13</title>
<g id="a_edge15_Node000007_Node000013"><a xlink:title=" ">
<path fill="none" stroke="#63b8ff" d="M517.55,-362.89C524.69,-346.92 538.58,-321.39 558.92,-308 586.73,-289.7 666.68,-276.01 730.28,-267.63"/>
<polygon fill="#63b8ff" stroke="#63b8ff" points="730.87,-271.08 740.34,-266.33 729.98,-264.14 730.87,-271.08"/>
</a>
</g>
</g>
<!-- Node13&#45;&gt;Node4 -->
<g id="edge17_Node000013_Node000004" class="edge">
<title>Node13&#45;&gt;Node4</title>
<g id="a_edge17_Node000013_Node000004"><a xlink:title=" ">
<path fill="none" stroke="#63b8ff" d="M809.56,-247.45C794.42,-229.21 760.16,-184.51 747.92,-140 737.9,-103.57 736.07,-90.87 747.92,-55 751.37,-44.54 758.35,-34.53 764.99,-26.66"/>
<polygon fill="#63b8ff" stroke="#63b8ff" points="767.78,-28.8 771.9,-19.04 762.59,-24.1 767.78,-28.8"/>
</a>
</g>
</g>
<!-- Node13&#45;&gt;Node8 -->
<g id="edge16_Node000013_Node000008" class="edge">
<title>Node13&#45;&gt;Node8</title>
<g id="a_edge16_Node000013_Node000008"><a xlink:title=" ">
<path fill="none" stroke="#63b8ff" d="M893.53,-252.19C975.57,-246.8 1109.05,-234.25 1220.92,-206 1256.53,-197.01 1263.51,-188.83 1297.92,-176 1342.57,-159.35 1367.03,-175.41 1398.92,-140 1424.64,-111.43 1422.62,-92.66 1414.92,-55 1413.02,-45.74 1409.13,-36.03 1405.35,-28.04"/>
<polygon fill="#63b8ff" stroke="#63b8ff" points="1408.43,-26.37 1400.79,-19.02 1402.18,-29.53 1408.43,-26.37"/>
</a>
</g>
</g>
<!-- Node14&#45;&gt;Node4 -->
<g id="edge19_Node000014_Node000004" class="edge">
<title>Node14&#45;&gt;Node4</title>
<g id="a_edge19_Node000014_Node000004"><a xlink:title=" ">
<path fill="none" stroke="#63b8ff" d="M236.82,-370.8C177.4,-363.54 92.73,-349.57 68.92,-327 45.83,-305.12 49.92,-289.81 49.92,-258 49.92,-258 49.92,-258 49.92,-124 49.92,-52.74 599.37,-19.73 745.55,-12.21"/>
<polygon fill="#63b8ff" stroke="#63b8ff" points="745.95,-15.69 755.76,-11.69 745.59,-8.7 745.95,-15.69"/>
</a>
</g>
</g>
<!-- Node15&#45;&gt;Node4 -->
<g id="edge22_Node000015_Node000004" class="edge">
<title>Node15&#45;&gt;Node4</title>
<g id="a_edge22_Node000015_Node000004"><a xlink:title=" ">
<path fill="none" stroke="#63b8ff" d="M946.72,-368.34C889.77,-344.99 737.3,-281.81 730.92,-272 709.06,-238.41 613.77,-351.32 738.92,-55 743.68,-43.73 752.66,-33.59 761.1,-25.85"/>
<polygon fill="#63b8ff" stroke="#63b8ff" points="763.54,-28.36 768.87,-19.2 758.99,-23.04 763.54,-28.36"/>
</a>
</g>
</g>
<!-- Node15&#45;&gt;Node8 -->
<g id="edge21_Node000015_Node000008" class="edge">
<title>Node15&#45;&gt;Node8</title>
<g id="a_edge21_Node000015_Node000008"><a xlink:title=" ">
<path fill="none" stroke="#63b8ff" d="M1010.5,-377.5C1098.75,-377.53 1307.36,-372.3 1474.92,-327 1541.5,-309 1613.92,-326.97 1613.92,-258 1613.92,-258 1613.92,-258 1613.92,-124 1613.92,-43.33 1495.02,-19.91 1432.84,-13.18"/>
<polygon fill="#63b8ff" stroke="#63b8ff" points="1432.95,-9.67 1422.65,-12.17 1432.26,-16.63 1432.95,-9.67"/>
</a>
</g>
</g>
<!-- Node15&#45;&gt;Node13 -->
<g id="edge47_Node000015_Node000013" class="edge">
<title>Node15&#45;&gt;Node13</title>
<g id="a_edge47_Node000015_Node000013"><a xlink:title=" ">
<path fill="none" stroke="#63b8ff" d="M957.06,-368.44C931.72,-348.47 868.39,-298.56 836.26,-273.25"/>
<polygon fill="#63b8ff" stroke="#63b8ff" points="838.11,-270.24 828.09,-266.8 833.77,-275.74 838.11,-270.24"/>
</a>
</g>
</g>
<!-- Node15&#45;&gt;Node16 -->
<g id="edge23_Node000015_Node000016" class="edge">
<title>Node15&#45;&gt;Node16</title>
<g id="a_edge23_Node000015_Node000016"><a xlink:title=" ">
<path fill="none" stroke="#63b8ff" d="M999.73,-368.46C1007.89,-366.47 1016.7,-364.49 1024.92,-363 1079.73,-353.04 1227.51,-336.55 1319.76,-326.69"/>
<polygon fill="#63b8ff" stroke="#63b8ff" points="1320.32,-330.15 1329.89,-325.61 1319.57,-323.19 1320.32,-330.15"/>
</a>
</g>
</g>
<!-- Node17 -->
<g id="Node000017" class="node">
<title>Node17</title>
<g id="a_Node000017"><a xlink:href="isf15acp4__graphics__context_8hpp.html" target="_top" xlink:title="Runtime&#45;selectable graphics backend for SmartDisplay applications.">
<polygon fill="white" stroke="#666666" points="1401.92,-272 1291.92,-272 1291.92,-242 1401.92,-242 1401.92,-272"/>
<text text-anchor="start" x="1299.92" y="-260" font-family="Helvetica,sans-Serif" font-size="10.00">isf15acp4_graphics</text>
<text text-anchor="middle" x="1346.92" y="-249" font-family="Helvetica,sans-Serif" font-size="10.00">_context.hpp</text>
</a>
</g>
</g>
<!-- Node15&#45;&gt;Node17 -->
<g id="edge46_Node000015_Node000017" class="edge">
<title>Node15&#45;&gt;Node17</title>
<g id="a_edge46_Node000015_Node000017"><a xlink:title=" ">
<path fill="none" stroke="#63b8ff" d="M1000.35,-368.44C1008.35,-366.5 1016.92,-364.55 1024.92,-363 1136.43,-341.43 1176.32,-377.77 1277.92,-327 1299.53,-316.2 1318.47,-296.03 1331.02,-280.27"/>
<polygon fill="#63b8ff" stroke="#63b8ff" points="1334,-282.12 1337.3,-272.06 1328.44,-277.87 1334,-282.12"/>
</a>
</g>
</g>
<!-- Node18 -->
<g id="Node000018" class="node">
<title>Node18</title>
<g id="a_Node000018"><a xlink:href="isf15acp4__canvas_8hpp.html" target="_top" xlink:title="Software framebuffer and 2D drawing primitives for SmartDisplay OLEDs.">
<polygon fill="white" stroke="#666666" points="1211.42,-200.5 1086.42,-200.5 1086.42,-181.5 1211.42,-181.5 1211.42,-200.5"/>
<text text-anchor="middle" x="1148.92" y="-188.5" font-family="Helvetica,sans-Serif" font-size="10.00">isf15acp4_canvas.hpp</text>
</a>
</g>
</g>
<!-- Node15&#45;&gt;Node18 -->
<g id="edge45_Node000015_Node000018" class="edge">
<title>Node15&#45;&gt;Node18</title>
<g id="a_edge45_Node000015_Node000018"><a xlink:title=" ">
<path fill="none" stroke="#63b8ff" d="M1000.67,-368.49C1008.58,-366.56 1017.03,-364.61 1024.92,-363 1073.46,-353.08 1212.84,-364.75 1244.92,-327 1280.26,-285.41 1210.44,-231.29 1171.96,-206.07"/>
<polygon fill="#63b8ff" stroke="#63b8ff" points="1173.69,-203.03 1163.38,-200.59 1169.92,-208.92 1173.69,-203.03"/>
</a>
</g>
</g>
<!-- Node19 -->
<g id="Node000019" class="node">
<title>Node19</title>
<g id="a_Node000019"><a xlink:href="isf15acp4__types_8hpp.html" target="_top" xlink:title="Shared types, constants, and color utilities for NKK SmartDisplay OLED drivers.">
<polygon fill="white" stroke="#666666" points="1092.42,-74 975.42,-74 975.42,-55 1092.42,-55 1092.42,-74"/>
<text text-anchor="middle" x="1033.92" y="-62" font-family="Helvetica,sans-Serif" font-size="10.00">isf15acp4_types.hpp</text>
</a>
</g>
</g>
<!-- Node15&#45;&gt;Node19 -->
<g id="edge52_Node000015_Node000019" class="edge">
<title>Node15&#45;&gt;Node19</title>
<g id="a_edge52_Node000015_Node000019"><a xlink:title=" ">
<path fill="none" stroke="#63b8ff" d="M969.75,-368.34C978.65,-326.34 1017.42,-143.39 1029.98,-84.11"/>
<polygon fill="#63b8ff" stroke="#63b8ff" points="1033.41,-84.77 1032.06,-74.26 1026.57,-83.32 1033.41,-84.77"/>
</a>
</g>
</g>
<!-- Node26 -->
<g id="Node000026" class="node">
<title>Node26</title>
<g id="a_Node000026"><a xlink:href="isf15acp4__ssd1331_8hpp.html" target="_top" xlink:title="SSD1331 command constants and initialization tables for NKK SmartDisplay.">
<polygon fill="white" stroke="#666666" points="997.42,-134.5 866.42,-134.5 866.42,-115.5 997.42,-115.5 997.42,-134.5"/>
<text text-anchor="middle" x="931.92" y="-122.5" font-family="Helvetica,sans-Serif" font-size="10.00">isf15acp4_ssd1331.hpp</text>
</a>
</g>
</g>
<!-- Node15&#45;&gt;Node26 -->
<g id="edge48_Node000015_Node000026" class="edge">
<title>Node15&#45;&gt;Node26</title>
<g id="a_edge48_Node000015_Node000026"><a xlink:title=" ">
<path fill="none" stroke="#63b8ff" d="M965,-368.25C961.8,-358.35 956.76,-341.69 953.92,-327 941.11,-260.76 935.13,-180.68 932.95,-144.89"/>
<polygon fill="#63b8ff" stroke="#63b8ff" points="936.44,-144.67 932.37,-134.89 929.46,-145.08 936.44,-144.67"/>
</a>
</g>
</g>
<!-- Node27 -->
<g id="Node000027" class="node">
<title>Node27</title>
<g id="a_Node000027"><a xlink:title=" ">
<polygon fill="#e0e0e0" stroke="#999999" points="1109.92,-327 995.92,-327 995.92,-308 1109.92,-308 1109.92,-327"/>
<text text-anchor="middle" x="1052.92" y="-315" font-family="Helvetica,sans-Serif" font-size="10.00">isf15acp4_version.h</text>
</a>
</g>
</g>
<!-- Node15&#45;&gt;Node27 -->
<g id="edge53_Node000015_Node000027" class="edge">
<title>Node15&#45;&gt;Node27</title>
<g id="a_edge53_Node000015_Node000027"><a xlink:title=" ">
<path fill="none" stroke="#63b8ff" d="M980.46,-368.37C994.02,-359.04 1015.86,-344.01 1032.02,-332.88"/>
<polygon fill="#63b8ff" stroke="#63b8ff" points="1034.07,-335.72 1040.33,-327.17 1030.1,-329.95 1034.07,-335.72"/>
</a>
</g>
</g>
<!-- Node28 -->
<g id="Node000028" class="node">
<title>Node28</title>
<g id="a_Node000028"><a xlink:href="isf15acp4_8ipp.html" target="_top" xlink:title=" ">
<polygon fill="white" stroke="#666666" points="1235.92,-327 1127.92,-327 1127.92,-308 1235.92,-308 1235.92,-327"/>
<text text-anchor="middle" x="1181.92" y="-315" font-family="Helvetica,sans-Serif" font-size="10.00">../src/isf15acp4.ipp</text>
</a>
</g>
</g>
<!-- Node15&#45;&gt;Node28 -->
<g id="edge54_Node000015_Node000028" class="edge">
<title>Node15&#45;&gt;Node28</title>
<g id="a_edge54_Node000015_Node000028"><a xlink:title=" ">
<path fill="none" stroke="#63b8ff" d="M999.04,-368.49C1036.52,-358.25 1099.6,-341 1140.99,-329.69"/>
<polygon fill="#63b8ff" stroke="#63b8ff" points="1142.04,-333.03 1150.76,-327.02 1140.19,-326.28 1142.04,-333.03"/>
</a>
</g>
</g>
<!-- Node16&#45;&gt;Node4 -->
<g id="edge24_Node000016_Node000004" class="edge">
<title>Node16&#45;&gt;Node4</title>
<g id="a_edge24_Node000016_Node000004"><a xlink:title=" ">
<path fill="none" stroke="#63b8ff" d="M1346.06,-307.92C1215.75,-285.34 879.58,-220.41 803.92,-140 775.45,-109.74 775.83,-57.09 778.43,-29.15"/>
<polygon fill="#63b8ff" stroke="#63b8ff" points="781.92,-29.46 779.56,-19.13 774.96,-28.68 781.92,-29.46"/>
</a>
</g>
</g>
<!-- Node16&#45;&gt;Node17 -->
<g id="edge25_Node000016_Node000017" class="edge">
<title>Node16&#45;&gt;Node17</title>
<g id="a_edge25_Node000016_Node000017"><a xlink:title=" ">
<path fill="none" stroke="#63b8ff" d="M1390.39,-307.87C1383.99,-300.52 1374.5,-289.63 1366.02,-279.91"/>
<polygon fill="#63b8ff" stroke="#63b8ff" points="1368.43,-277.35 1359.22,-272.11 1363.16,-281.95 1368.43,-277.35"/>
</a>
</g>
</g>
<!-- Node24 -->
<g id="Node000024" class="node">
<title>Node24</title>
<g id="a_Node000024"><a xlink:href="isf15acp4__button__ui_8ipp.html" target="_top" xlink:title=" ">
<polygon fill="white" stroke="#666666" points="1585.42,-272 1458.42,-272 1458.42,-242 1585.42,-242 1585.42,-272"/>
<text text-anchor="start" x="1466.42" y="-260" font-family="Helvetica,sans-Serif" font-size="10.00">../src/isf15acp4_button</text>
<text text-anchor="middle" x="1521.92" y="-249" font-family="Helvetica,sans-Serif" font-size="10.00">_ui.ipp</text>
</a>
</g>
</g>
<!-- Node16&#45;&gt;Node24 -->
<g id="edge43_Node000016_Node000024" class="edge">
<title>Node16&#45;&gt;Node24</title>
<g id="a_edge43_Node000016_Node000024"><a xlink:title=" ">
<path fill="none" stroke="#63b8ff" d="M1415.95,-307.99C1433.35,-299.79 1460.26,-287.09 1482.61,-276.55"/>
<polygon fill="#63b8ff" stroke="#63b8ff" points="1484.32,-279.61 1491.87,-272.18 1481.33,-273.28 1484.32,-279.61"/>
</a>
</g>
</g>
<!-- Node17&#45;&gt;Node4 -->
<g id="edge27_Node000017_Node000004" class="edge">
<title>Node17&#45;&gt;Node4</title>
<g id="a_edge27_Node000017_Node000004"><a xlink:title=" ">
<path fill="none" stroke="#63b8ff" d="M1291.9,-247.74C1237.24,-239.08 1151.22,-224.2 1077.92,-206 1034.53,-195.23 1025.02,-187.86 981.92,-176 915.4,-157.7 882.87,-185.4 830.92,-140 797.9,-111.15 786.56,-57.9 782.76,-29.5"/>
<polygon fill="#63b8ff" stroke="#63b8ff" points="786.21,-28.84 781.58,-19.31 779.25,-29.64 786.21,-28.84"/>
</a>
</g>
</g>
<!-- Node17&#45;&gt;Node8 -->
<g id="edge26_Node000017_Node000008" class="edge">
<title>Node17&#45;&gt;Node8</title>
<g id="a_edge26_Node000017_Node000008"><a xlink:title=" ">
<path fill="none" stroke="#63b8ff" d="M1402.11,-243.17C1421.59,-235.7 1441.48,-224.04 1452.92,-206 1467.83,-182.47 1500.91,-164.11 1447.92,-55 1441.92,-42.64 1430.73,-32.37 1420.26,-24.82"/>
<polygon fill="#63b8ff" stroke="#63b8ff" points="1422.03,-21.79 1411.77,-19.13 1418.13,-27.6 1422.03,-21.79"/>
</a>
</g>
</g>
<!-- Node17&#45;&gt;Node18 -->
<g id="edge28_Node000017_Node000018" class="edge">
<title>Node17&#45;&gt;Node18</title>
<g id="a_edge28_Node000017_Node000018"><a xlink:title=" ">
<path fill="none" stroke="#63b8ff" d="M1303.47,-241.95C1267.98,-230.48 1218.41,-214.46 1185.06,-203.68"/>
<polygon fill="#63b8ff" stroke="#63b8ff" points="1185.86,-200.26 1175.27,-200.52 1183.71,-206.92 1185.86,-200.26"/>
</a>
</g>
</g>
<!-- Node22 -->
<g id="Node000022" class="node">
<title>Node22</title>
<g id="a_Node000022"><a xlink:href="isf15acp4__graphics__surface_8hpp.html" target="_top" xlink:title="Pluggable graphics surface interface for interchangeable render backends.">
<polygon fill="white" stroke="#666666" points="1201.92,-140 1091.92,-140 1091.92,-110 1201.92,-110 1201.92,-140"/>
<text text-anchor="start" x="1099.92" y="-128" font-family="Helvetica,sans-Serif" font-size="10.00">isf15acp4_graphics</text>
<text text-anchor="middle" x="1146.92" y="-117" font-family="Helvetica,sans-Serif" font-size="10.00">_surface.hpp</text>
</a>
</g>
</g>
<!-- Node17&#45;&gt;Node22 -->
<g id="edge38_Node000017_Node000022" class="edge">
<title>Node17&#45;&gt;Node22</title>
<g id="a_edge38_Node000017_Node000022"><a xlink:title=" ">
<path fill="none" stroke="#63b8ff" d="M1325.13,-241.84C1289.29,-218.54 1217.81,-172.08 1177.11,-145.63"/>
<polygon fill="#63b8ff" stroke="#63b8ff" points="1178.97,-142.66 1168.68,-140.14 1175.15,-148.53 1178.97,-142.66"/>
</a>
</g>
</g>
<!-- Node23 -->
<g id="Node000023" class="node">
<title>Node23</title>
<g id="a_Node000023"><a xlink:href="isf15acp4__graphics__context_8ipp.html" target="_top" xlink:title=" ">
<polygon fill="white" stroke="#666666" points="1443.42,-206 1306.42,-206 1306.42,-176 1443.42,-176 1443.42,-206"/>
<text text-anchor="start" x="1314.42" y="-194" font-family="Helvetica,sans-Serif" font-size="10.00">../src/isf15acp4_graphics</text>
<text text-anchor="middle" x="1374.92" y="-183" font-family="Helvetica,sans-Serif" font-size="10.00">_context.ipp</text>
</a>
</g>
</g>
<!-- Node17&#45;&gt;Node23 -->
<g id="edge42_Node000017_Node000023" class="edge">
<title>Node17&#45;&gt;Node23</title>
<g id="a_edge42_Node000017_Node000023"><a xlink:title=" ">
<path fill="none" stroke="#63b8ff" d="M1353.13,-241.8C1356.5,-234.09 1360.76,-224.37 1364.61,-215.56"/>
<polygon fill="#63b8ff" stroke="#63b8ff" points="1367.92,-216.73 1368.72,-206.16 1361.51,-213.92 1367.92,-216.73"/>
</a>
</g>
</g>
<!-- Node18&#45;&gt;Node4 -->
<g id="edge30_Node000018_Node000004" class="edge">
<title>Node18&#45;&gt;Node4</title>
<g id="a_edge30_Node000018_Node000004"><a xlink:title=" ">
<path fill="none" stroke="#63b8ff" d="M1095.62,-181.46C1012.95,-168.12 862.71,-143.5 857.92,-140 823.59,-114.88 836.44,-91.09 813.92,-55 807.94,-45.41 800.49,-35.25 794.19,-27.06"/>
<polygon fill="#63b8ff" stroke="#63b8ff" points="796.85,-24.78 787.92,-19.07 791.34,-29.1 796.85,-24.78"/>
</a>
</g>
</g>
<!-- Node18&#45;&gt;Node8 -->
<g id="edge29_Node000018_Node000008" class="edge">
<title>Node18&#45;&gt;Node8</title>
<g id="a_edge29_Node000018_Node000008"><a xlink:title=" ">
<path fill="none" stroke="#63b8ff" d="M1194.02,-181.47C1258.66,-169.05 1370.65,-146.73 1376.92,-140 1405.11,-109.76 1402.83,-57.1 1399.15,-29.15"/>
<polygon fill="#63b8ff" stroke="#63b8ff" points="1402.59,-28.49 1397.62,-19.14 1395.67,-29.55 1402.59,-28.49"/>
</a>
</g>
</g>
<!-- Node18&#45;&gt;Node19 -->
<g id="edge31_Node000018_Node000019" class="edge">
<title>Node18&#45;&gt;Node19</title>
<g id="a_edge31_Node000018_Node000019"><a xlink:title=" ">
<path fill="none" stroke="#63b8ff" d="M1134.93,-181.44C1120.76,-172.32 1098.73,-156.9 1082.92,-140 1066.63,-122.59 1052.2,-99.16 1043.29,-83.26"/>
<polygon fill="#63b8ff" stroke="#63b8ff" points="1046.35,-81.55 1038.49,-74.45 1040.21,-84.9 1046.35,-81.55"/>
</a>
</g>
</g>
<!-- Node20 -->
<g id="Node000020" class="node">
<title>Node20</title>
<g id="a_Node000020"><a xlink:href="isf15acp4__canvas_8ipp.html" target="_top" xlink:title=" ">
<polygon fill="white" stroke="#666666" points="1367.92,-134.5 1219.92,-134.5 1219.92,-115.5 1367.92,-115.5 1367.92,-134.5"/>
<text text-anchor="middle" x="1293.92" y="-122.5" font-family="Helvetica,sans-Serif" font-size="10.00">../src/isf15acp4_canvas.ipp</text>
</a>
</g>
</g>
<!-- Node18&#45;&gt;Node20 -->
<g id="edge34_Node000018_Node000020" class="edge">
<title>Node18&#45;&gt;Node20</title>
<g id="a_edge34_Node000018_Node000020"><a xlink:title=" ">
<path fill="none" stroke="#63b8ff" d="M1168.47,-181.37C1193.23,-170.44 1236.09,-151.52 1264.73,-138.88"/>
<polygon fill="#63b8ff" stroke="#63b8ff" points="1266.47,-141.94 1274.21,-134.7 1263.65,-135.54 1266.47,-141.94"/>
</a>
</g>
</g>
<!-- Node19&#45;&gt;Node4 -->
<g id="edge33_Node000019_Node000004" class="edge">
<title>Node19&#45;&gt;Node4</title>
<g id="a_edge33_Node000019_Node000004"><a xlink:title=" ">
<path fill="none" stroke="#63b8ff" d="M993.27,-54.98C944.18,-44.7 862.44,-27.58 815.99,-17.85"/>
<polygon fill="#63b8ff" stroke="#63b8ff" points="816.6,-14.4 806.09,-15.77 815.16,-21.25 816.6,-14.4"/>
</a>
</g>
</g>
<!-- Node19&#45;&gt;Node8 -->
<g id="edge32_Node000019_Node000008" class="edge">
<title>Node19&#45;&gt;Node8</title>
<g id="a_edge32_Node000019_Node000008"><a xlink:title=" ">
<path fill="none" stroke="#63b8ff" d="M1092.08,-54.98C1167.27,-43.98 1296.02,-25.13 1359.02,-15.9"/>
<polygon fill="#63b8ff" stroke="#63b8ff" points="1359.88,-19.31 1369.27,-14.4 1358.87,-12.39 1359.88,-19.31"/>
</a>
</g>
</g>
<!-- Node21 -->
<g id="Node000021" class="node">
<title>Node21</title>
<g id="a_Node000021"><a xlink:href="isf15acp4__font_8hpp.html" target="_top" xlink:title="Compact 5x7 bitmap font for SmartDisplay text rendering.">
<polygon fill="white" stroke="#666666" points="1348.92,-74 1238.92,-74 1238.92,-55 1348.92,-55 1348.92,-74"/>
<text text-anchor="middle" x="1293.92" y="-62" font-family="Helvetica,sans-Serif" font-size="10.00">isf15acp4_font.hpp</text>
</a>
</g>
</g>
<!-- Node20&#45;&gt;Node21 -->
<g id="edge35_Node000020_Node000021" class="edge">
<title>Node20&#45;&gt;Node21</title>
<g id="a_edge35_Node000020_Node000021"><a xlink:title=" ">
<path fill="none" stroke="#63b8ff" d="M1293.92,-115.37C1293.92,-107.25 1293.92,-94.81 1293.92,-84.39"/>
<polygon fill="#63b8ff" stroke="#63b8ff" points="1297.42,-84.17 1293.92,-74.17 1290.42,-84.17 1297.42,-84.17"/>
</a>
</g>
</g>
<!-- Node21&#45;&gt;Node4 -->
<g id="edge37_Node000021_Node000004" class="edge">
<title>Node21&#45;&gt;Node4</title>
<g id="a_edge37_Node000021_Node000004"><a xlink:title=" ">
<path fill="none" stroke="#63b8ff" d="M1238.53,-57.78C1132.47,-46.82 903.48,-23.16 815.93,-14.12"/>
<polygon fill="#63b8ff" stroke="#63b8ff" points="816.28,-10.63 805.97,-13.09 815.56,-17.6 816.28,-10.63"/>
</a>
</g>
</g>
<!-- Node21&#45;&gt;Node8 -->
<g id="edge36_Node000021_Node000008" class="edge">
<title>Node21&#45;&gt;Node8</title>
<g id="a_edge36_Node000021_Node000008"><a xlink:title=" ">
<path fill="none" stroke="#63b8ff" d="M1310.31,-54.98C1326.49,-46.57 1351.49,-33.59 1370.3,-23.81"/>
<polygon fill="#63b8ff" stroke="#63b8ff" points="1371.97,-26.89 1379.23,-19.17 1368.74,-20.68 1371.97,-26.89"/>
</a>
</g>
</g>
<!-- Node22&#45;&gt;Node4 -->
<g id="edge40_Node000022_Node000004" class="edge">
<title>Node22&#45;&gt;Node4</title>
<g id="a_edge40_Node000022_Node000004"><a xlink:title=" ">
<path fill="none" stroke="#63b8ff" d="M1141.93,-110C1135.4,-93.87 1122.33,-67.95 1101.92,-55 1055.05,-25.27 889.76,-14.93 816.42,-11.76"/>
<polygon fill="#63b8ff" stroke="#63b8ff" points="816.43,-8.25 806.29,-11.34 816.14,-15.25 816.43,-8.25"/>
</a>
</g>
</g>
<!-- Node22&#45;&gt;Node8 -->
<g id="edge39_Node000022_Node000008" class="edge">
<title>Node22&#45;&gt;Node8</title>
<g id="a_edge39_Node000022_Node000008"><a xlink:title=" ">
<path fill="none" stroke="#63b8ff" d="M1159.96,-110C1175.28,-94.37 1202.13,-69.39 1229.92,-55 1271.46,-33.49 1324.38,-21.64 1359.16,-15.68"/>
<polygon fill="#63b8ff" stroke="#63b8ff" points="1360.04,-19.08 1369.34,-14.02 1358.91,-12.18 1360.04,-19.08"/>
</a>
</g>
</g>
<!-- Node22&#45;&gt;Node19 -->
<g id="edge41_Node000022_Node000019" class="edge">
<title>Node22&#45;&gt;Node19</title>
<g id="a_edge41_Node000022_Node000019"><a xlink:title=" ">
<path fill="none" stroke="#63b8ff" d="M1119.85,-109.99C1101.67,-100.58 1077.85,-88.24 1059.9,-78.95"/>
<polygon fill="#63b8ff" stroke="#63b8ff" points="1061.1,-75.63 1050.61,-74.14 1057.88,-81.84 1061.1,-75.63"/>
</a>
</g>
</g>
<!-- Node25 -->
<g id="Node000025" class="node">
<title>Node25</title>
<g id="a_Node000025"><a xlink:title=" ">
<polygon fill="#e0e0e0" stroke="#999999" points="1585.42,-200.5 1538.42,-200.5 1538.42,-181.5 1585.42,-181.5 1585.42,-200.5"/>
<text text-anchor="middle" x="1561.92" y="-188.5" font-family="Helvetica,sans-Serif" font-size="10.00">cmath</text>
</a>
</g>
</g>
<!-- Node24&#45;&gt;Node25 -->
<g id="edge44_Node000024_Node000025" class="edge">
<title>Node24&#45;&gt;Node25</title>
<g id="a_edge44_Node000024_Node000025"><a xlink:title=" ">
<path fill="none" stroke="#63b8ff" d="M1530.8,-241.8C1536.73,-232.31 1544.57,-219.76 1550.9,-209.63"/>
<polygon fill="#63b8ff" stroke="#63b8ff" points="1554.06,-211.18 1556.39,-200.84 1548.12,-207.47 1554.06,-211.18"/>
</a>
</g>
</g>
<!-- Node26&#45;&gt;Node4 -->
<g id="edge50_Node000026_Node000004" class="edge">
<title>Node26&#45;&gt;Node4</title>
<g id="a_edge50_Node000026_Node000004"><a xlink:title=" ">
<path fill="none" stroke="#63b8ff" d="M922.94,-115.45C908.52,-101.92 879.07,-75.04 851.92,-55 836.75,-43.8 818.74,-32.54 804.66,-24.14"/>
<polygon fill="#63b8ff" stroke="#63b8ff" points="806.43,-21.13 796.04,-19.07 802.88,-27.16 806.43,-21.13"/>
</a>
</g>
</g>
<!-- Node26&#45;&gt;Node8 -->
<g id="edge49_Node000026_Node000008" class="edge">
<title>Node26&#45;&gt;Node8</title>
<g id="a_edge49_Node000026_Node000008"><a xlink:title=" ">
<path fill="none" stroke="#63b8ff" d="M933.5,-115.49C936.8,-100.46 945.89,-69.46 966.92,-55 1030.13,-11.54 1266.95,-9.14 1359,-9.92"/>
<polygon fill="#63b8ff" stroke="#63b8ff" points="1359.2,-13.42 1369.24,-10.02 1359.27,-6.42 1359.2,-13.42"/>
</a>
</g>
</g>
<!-- Node26&#45;&gt;Node19 -->
<g id="edge51_Node000026_Node000019" class="edge">
<title>Node26&#45;&gt;Node19</title>
<g id="a_edge51_Node000026_Node000019"><a xlink:title=" ">
<path fill="none" stroke="#63b8ff" d="M946.97,-115.37C963.54,-105.86 990.42,-90.45 1009.91,-79.27"/>
<polygon fill="#63b8ff" stroke="#63b8ff" points="1011.87,-82.18 1018.81,-74.17 1008.39,-76.11 1011.87,-82.18"/>
</a>
</g>
</g>
</g>
</svg>
