<?xml version="1.0" encoding="UTF-8" standalone="no"?>
<!DOCTYPE svg PUBLIC "-//W3C//DTD SVG 1.1//EN"
 "http://www.w3.org/Graphics/SVG/1.1/DTD/svg11.dtd">
<!-- Generated by graphviz version 2.43.0 (0)
 -->
<!-- Title: inc/isf15acp4_spi_interface.hpp Pages: 1 -->
<svg width="178pt" height="82pt"
 viewBox="0.00 0.00 178.00 82.00" xmlns="http://www.w3.org/2000/svg" xmlns:xlink="http://www.w3.org/1999/xlink">
<g id="graph0" class="graph" transform="scale(1 1) rotate(0) translate(4 78)">
<title>inc/isf15acp4_spi_interface.hpp</title>
<!-- Node1 -->
<g id="Node000001" class="node">
<title>Node1</title>
<g id="a_Node000001"><a xlink:title="CRTP&#45;based SPI and GPIO interface for NKK SmartDisplay OLED drivers.">
<polygon fill="#999999" stroke="#666666" points="170,-74 0,-74 0,-55 170,-55 170,-74"/>
<text text-anchor="middle" x="85" y="-62" font-family="Helvetica,sans-Serif" font-size="10.00">inc/isf15acp4_spi_interface.hpp</text>
</a>
</g>
</g>
<!-- Node2 -->
<g id="Node000002" class="node">
<title>Node2</title>
<g id="a_Node000002"><a xlink:title=" ">
<polygon fill="#e0e0e0" stroke="#999999" points="76.5,-19 23.5,-19 23.5,0 76.5,0 76.5,-19"/>
<text text-anchor="middle" x="50" y="-7" font-family="Helvetica,sans-Serif" font-size="10.00">cstddef</text>
</a>
</g>
</g>
<!-- Node1&#45;&gt;Node2 -->
<g id="edge1_Node000001_Node000002" class="edge">
<title>Node1&#45;&gt;Node2</title>
<g id="a_edge1_Node000001_Node000002"><a xlink:title=" ">
<path fill="none" stroke="#63b8ff" d="M79.22,-54.75C74.38,-47.42 67.32,-36.73 61.36,-27.7"/>
<polygon fill="#63b8ff" stroke="#63b8ff" points="64.1,-25.5 55.67,-19.09 58.26,-29.36 64.1,-25.5"/>
</a>
</g>
</g>
<!-- Node3 -->
<g id="Node000003" class="node">
<title>Node3</title>
<g id="a_Node000003"><a xlink:title=" ">
<polygon fill="#e0e0e0" stroke="#999999" points="145,-19 95,-19 95,0 145,0 145,-19"/>
<text text-anchor="middle" x="120" y="-7" font-family="Helvetica,sans-Serif" font-size="10.00">cstdint</text>
</a>
</g>
</g>
<!-- Node1&#45;&gt;Node3 -->
<g id="edge2_Node000001_Node000003" class="edge">
<title>Node1&#45;&gt;Node3</title>
<g id="a_edge2_Node000001_Node000003"><a xlink:title=" ">
<path fill="none" stroke="#63b8ff" d="M90.78,-54.75C95.62,-47.42 102.68,-36.73 108.64,-27.7"/>
<polygon fill="#63b8ff" stroke="#63b8ff" points="111.74,-29.36 114.33,-19.09 105.9,-25.5 111.74,-29.36"/>
</a>
</g>
</g>
</g>
</svg>
